<?xml version="1.0" encoding="utf-8"?>
<!-- Generator: Adobe Illustrator 27.5.0, SVG Export Plug-In . SVG Version: 6.00 Build 0)  -->
<svg version="1.1" id="Layer_1" xmlns="http://www.w3.org/2000/svg" xmlns:xlink="http://www.w3.org/1999/xlink" x="0px" y="0px"
	 viewBox="0 0 450 450" style="enable-background:new 0 0 450 450;" xml:space="preserve">
<g>
	<path style="fill:#AEC9D4;" d="M113.005,320.421c-3.062,0.956-6.203,1.402-9.393,0.933c-3.933-0.578-8.179-3.568-7.689-7.513
		c0.376-3.024,3.265-4.958,5.502-7.027c6.971-6.447,0.442-11.374-6.824-9.644c-3.41,0.812-6.723,2.285-10.229,2.298
		c-3.506,0.013-7.411-2.088-7.822-5.57c-0.491-4.153,3.909-7.06,7.751-8.711c3.811-1.637,9.861-5.947,8.394-10.773
		c-2.837-9.332-22.782,0.694-26.148,1.297c-4.097,0.735-9.226,0.455-11.209-3.204c-1.39-2.564-0.527-5.88,1.312-8.144
		c1.839-2.264,24.727-12.508,25.141-19.63c0.163-2.799-2.231-5.05-4.164-7.082c-5.416-5.692-10.413-12.745-9.919-20.587
		c1.137-18.069,20.088-2.073,28.901-27.208c4.033-11.504,15.983-11.217,36.032-3.529c4.693,1.799,9.967,1.573,14.992,1.454
		c14.561-0.343,27.232-9.516,38.848-18.304c13.326-10.081,26.651-20.162,39.977-30.244c9.99-7.558,20.099-15.186,31.576-20.203
		c10.815-4.727,6.013,8.302,17.632,6.225c6.339-1.133,20.912-19.265,35.684-16.252c6.31,1.287,12.466,5.404,14.24,11.594
		c1.623,5.662-0.644,11.676-3.34,16.913c-2.695,5.237-5.931,10.461-6.392,16.334c-0.461,5.872,3.089,12.604,8.95,13.196
		c1.966,0.198,3.998-0.302,5.906,0.214c4.545,1.229,5.717,7.578,3.628,11.798c-2.09,4.219-6.185,6.995-9.579,10.257
		c-3.395,3.262-6.343,7.898-5.086,12.435c1.5,5.413,8.359,8.318,9.088,13.888c0.397,3.035-0.077,7.068-2.737,8.583
		c-13.533,7.709-23.599,9.386-16.618,28.568c0.48,1.319-1.503,2.508-2.806,3.031c-2.422,0.973-4.853-1.166-7.28-2.125
		c-4.105-1.621-8.867,0.306-12.108,3.302c-3.241,2.996-5.421,6.937-8.114,10.434c-13.362,17.35-37.446,21.897-59.328,22.781
		c-12.241,0.495-24.544,0.244-36.723,1.764c-10.52,2.63-20.553,4.605-30.681,8.808c-9.698,4.025-18.536,8.874-27.714,14.113
		C120.958,317.002,117.05,319.157,113.005,320.421z"/>
	<g>
		<g>
			<g>
				<path style="fill:#86B1B8;" d="M280.892,206.239c-0.371,0.074-0.76-0.107-0.932-0.464c-0.204-0.422-0.027-0.931,0.396-1.135
					c2.542-1.229,5.24-2.13,7.85-3.004c1.622-0.542,3.299-1.102,4.905-1.731c19.198-7.529,30.739-25.355,37.037-38.985
					c0.199-0.427,0.704-0.61,1.129-0.415c0.425,0.198,0.611,0.702,0.415,1.129c-6.432,13.912-18.237,32.118-37.961,39.853
					c-1.647,0.646-3.345,1.213-4.987,1.762c-2.56,0.855-5.205,1.74-7.65,2.923C281.029,206.203,280.961,206.226,280.892,206.239z"/>
			</g>
			<path style="fill:#86B1B8;" d="M345.885,145.753c0.199-1.029,0.33-2.099,0.084-3.117c-0.659-2.725-3.958-4.167-6.701-3.583
				c-2.743,0.583-4.927,2.664-6.586,4.924c-2.854,3.886-2.877,19.731-2.877,19.731S344.68,151.999,345.885,145.753z"/>
			<path style="fill:#86B1B8;" d="M346.154,171.874c0.753-0.412,1.496-0.887,2.01-1.574c1.375-1.839,0.563-4.672-1.237-6.098
				c-1.8-1.426-4.253-1.717-6.545-1.585c-3.942,0.228-13.95,8.485-13.95,8.485S341.584,174.375,346.154,171.874z"/>
			<path style="fill:#86B1B8;" d="M338.378,192.987c1.029-0.117,2.078-0.31,2.966-0.844c2.376-1.429,2.759-4.969,1.397-7.384
				c-1.363-2.415-3.973-3.859-6.597-4.756c-4.513-1.542-19.468,3.13-19.468,3.13S332.127,193.7,338.378,192.987z"/>
			<path style="fill:#86B1B8;" d="M321.129,211.952c1.096,0.118,2.23,0.162,3.276-0.186c2.8-0.931,4.022-4.516,3.17-7.341
				c-0.853-2.825-3.227-4.932-5.742-6.474c-4.326-2.652-20.943-1.284-20.943-1.284S314.473,211.236,321.129,211.952z"/>
			<path style="fill:#86B1B8;" d="M300.476,221.23c0.93,0.413,1.913,0.772,2.931,0.763c2.723-0.027,4.81-2.831,4.859-5.554
				c0.049-2.723-1.441-5.245-3.215-7.31c-3.052-3.552-18.037-7.046-18.037-7.046S294.831,218.721,300.476,221.23z"/>
		</g>
		<path style="fill:#86B1B8;" d="M324.99,155.344c-0.383-0.815-0.832-1.624-1.518-2.206c-1.836-1.559-4.855-0.892-6.464,0.9
			c-1.609,1.792-2.073,4.341-2.083,6.749c-0.016,4.142,7.98,15.154,7.98,15.154S327.312,160.29,324.99,155.344z"/>
		<path style="fill:#86B1B8;" d="M297.564,179.424c-0.382-0.814-0.832-1.624-1.518-2.206c-1.836-1.559-4.855-0.892-6.464,0.9
			s-2.073,4.341-2.083,6.749c-0.017,4.141,7.98,15.153,7.98,15.153S299.886,184.37,297.564,179.424z"/>
		<path style="fill:#86B1B8;" d="M312.267,169.472c-0.379-0.867-0.829-1.731-1.534-2.363c-1.887-1.69-5.08-1.074-6.822,0.765
			c-1.742,1.839-2.302,4.506-2.379,7.038c-0.133,4.354,7.965,16.157,7.965,16.157S314.57,174.738,312.267,169.472z"/>
	</g>
	<g>
		<g>
			<path style="fill:#FFFFFF;" d="M141.549,282.115c0.24,0.372,0.21,0.873-0.104,1.214c-0.37,0.404-1.001,0.43-1.406,0.058
				c-2.432-2.239-4.574-4.787-6.649-7.253c-1.288-1.532-2.62-3.117-3.996-4.594c-16.459-17.656-40.831-22.545-58.378-23.535
				c-0.551-0.033-0.967-0.504-0.938-1.051c0.032-0.548,0.502-0.967,1.05-0.938c17.912,1.013,42.811,6.026,59.721,24.166
				c1.411,1.515,2.76,3.118,4.064,4.671c2.033,2.418,4.135,4.916,6.475,7.069C141.452,281.981,141.505,282.046,141.549,282.115z"/>
		</g>
		<path style="fill:#FFFFFF;" d="M47.732,237.405c-1.205,0.227-2.427,0.544-3.429,1.25c-2.683,1.891-2.832,6.102-1.017,8.836
			c1.816,2.734,5.021,4.216,8.195,5.05c5.459,1.434,22.716-5.361,22.716-5.361S55.05,236.028,47.732,237.405z"/>
		<path style="fill:#FFFFFF;" d="M75.953,226.741c-0.772-0.642-1.61-1.247-2.579-1.51c-2.593-0.705-5.328,1.399-6.105,3.971
			c-0.777,2.572-0.039,5.368,1.092,7.806c1.945,4.192,15.24,11.532,15.24,11.532S80.642,230.639,75.953,226.741z"/>
		<path style="fill:#FFFFFF;" d="M65.702,257.278c-0.798,0.848-1.559,1.774-1.933,2.877c-1.002,2.951,1.238,6.267,4.16,7.351
			c2.922,1.084,6.211,0.429,9.113-0.705c4.992-1.951,14.438-16.814,14.438-16.814S70.549,252.13,65.702,257.278z"/>
		<path style="fill:#FFFFFF;" d="M102.379,225.244c-0.571-1.07-1.232-2.128-2.196-2.865c-2.579-1.971-6.596-0.865-8.638,1.658
			c-2.042,2.523-2.491,5.986-2.337,9.228c0.264,5.576,11.787,19.845,11.787,19.845S105.846,231.742,102.379,225.244z"/>
		<path style="fill:#FFFFFF;" d="M85.149,263.799c-0.855,0.86-1.672,1.804-2.092,2.941c-1.125,3.044,1.114,6.559,4.126,7.768
			c3.012,1.209,6.454,0.619,9.507-0.482c5.251-1.893,15.499-17.104,15.499-17.104S90.338,258.574,85.149,263.799z"/>
		<path style="fill:#FFFFFF;" d="M100.07,278.58c-0.964,0.971-1.886,2.035-2.36,3.318c-1.269,3.435,1.257,7.399,4.655,8.764
			c3.398,1.364,7.281,0.699,10.726-0.543c5.924-2.135,17.484-19.295,17.484-19.295S105.925,272.685,100.07,278.58z"/>
		<path style="fill:#FFFFFF;" d="M127.142,233.442c-0.344-1.244-0.784-2.497-1.613-3.486c-2.218-2.647-6.647-2.434-9.355-0.29
			s-3.98,5.635-4.576,9.037c-1.024,5.851,7.617,23.349,7.617,23.349S129.228,240.995,127.142,233.442z"/>
	</g>
	<g>
		<g>
			<path style="opacity:0.1;fill:#3F72DF;" d="M123.319,345.93c-0.607,0.35-0.912,0.815-0.915,1.279
				c-0.002,0.464,0.298,0.928,0.901,1.279l118.22,68.75c0.603,0.35,1.403,0.526,2.205,0.526c0.801,0,1.604-0.175,2.211-0.526
				l159.983-92.366c0.618-0.357,0.923-0.821,0.923-1.283c0-0.463-0.305-0.924-0.908-1.274l-118.22-68.75
				c-0.603-0.35-1.398-0.529-2.197-0.53c-0.799-0.001-1.601,0.174-2.219,0.53L123.319,345.93z"/>
			<path style="fill:#CDC4FD;" d="M128.654,340.851c-0.607,0.35-0.912,0.815-0.915,1.279c-0.002,0.464,0.297,0.928,0.901,1.279
				l113.954,66.223c0.603,0.351,1.403,0.526,2.205,0.526c0.801,0,1.604-0.175,2.211-0.526l159.982-92.366
				c0.618-0.357,0.923-0.821,0.923-1.284c0-0.463-0.305-0.924-0.908-1.274l-113.954-66.223c-0.603-0.35-1.398-0.529-2.197-0.53
				c-0.799-0.001-1.601,0.174-2.219,0.53L128.654,340.851z"/>
			<g>
				<g>
					<g>
						<g style="enable-background:new    ;">
							<path style="fill:#CDC4FD;" d="M290.4,108.842c-0.128-0.064-0.319-0.096-0.479-0.096c-0.32-0.032-0.671,0.064-1.023,0.288
								L128.934,196.99c-0.735,0.415-1.374,1.63-1.758,2.813c-0.287,0.831-0.447,1.63-0.447,2.205l0.383,137.208
								c0,0.256,0.032,0.479,0.096,0.671c0.032,0.192,0.128,0.352,0.224,0.479c0.096,0.128,0.192,0.224,0.319,0.288l-4.73-2.749
								c-0.384-0.224-0.639-0.703-0.639-1.438l-0.352-137.176c0-0.575,0.16-1.406,0.448-2.237c0.383-1.183,1.022-2.365,1.758-2.813
								L284.2,106.285c0.607-0.352,1.183-0.384,1.598-0.128L290.4,108.842z"/>
							<g>
								<path style="fill:#DAD3FD;" d="M291.519,244.292c0,1.406-0.991,3.132-2.205,3.836l-159.74,92.207l-0.256,0.16
									c-0.607,0.351-1.183,0.383-1.566,0.16c-0.128-0.096-0.224-0.16-0.319-0.288c-0.096-0.128-0.192-0.287-0.224-0.479
									c-0.064-0.192-0.096-0.415-0.096-0.671l-0.383-137.208c0-0.575,0.16-1.374,0.447-2.205c0.384-1.183,1.023-2.397,1.758-2.813
									l159.964-87.956c0.352-0.224,0.703-0.319,1.023-0.288c0.16,0,0.32,0.032,0.479,0.096c0.448,0.224,0.735,0.735,0.735,1.438
									L291.519,244.292z"/>
								<g>
									<path style="fill:#FFFFFF;" d="M128.931,201.391c26.546-15.599,53.24-30.941,79.854-46.421
										c26.712-15.31,53.346-30.756,80.129-45.945c-26.545,15.6-53.239,30.943-79.854,46.421
										C182.347,170.755,155.713,186.201,128.931,201.391z"/>
								</g>
								<path style="fill:#291E40;" d="M131.13,205.203c0.047,0.041,0.107-4.461,0.153-4.507l155.464-85.333l0.357,120.132
									c-0.002-0.03-155.616,89.837-155.616,89.837L131.13,205.203z"/>
							</g>
						</g>
					</g>
					<g>
						<g style="enable-background:new    ;">
							<path style="fill:#DAD3FD;" d="M407.921,315.981v5.433c0,0.479-0.288,0.927-0.927,1.279l-159.964,92.367
								c-0.607,0.352-1.438,0.544-2.237,0.512c-0.831,0-1.566-0.16-2.173-0.512l-113.972-66.223
								c-0.575-0.351-0.895-0.799-0.895-1.246v-5.465c0,0.48,0.288,0.927,0.895,1.279l113.94,66.223
								c0.607,0.352,1.406,0.512,2.205,0.512c0.799,0,1.598-0.16,2.205-0.512l159.996-92.367
								C407.601,316.908,407.921,316.428,407.921,315.981z"/>
							<g>
								<polygon style="fill:#BDB3F5;" points="150.523,343.424 292.945,261.2 359.607,300.328 217.186,382.555 								"/>
							</g>
						</g>
					</g>
					<polygon style="fill:#FFFFFF;" points="322.285,330.328 322.285,331.231 295.72,346.452 269.948,361.232 269.155,360.77 
						295.72,345.549 					"/>
					<polygon style="fill:#DAD3FD;" points="346.56,345.372 344.445,346.584 320.765,360.153 294.2,375.374 281.688,368.061 
						269.948,361.232 295.72,346.452 322.285,331.231 334.819,338.522 					"/>
					<polygon style="fill:#886CC3;" points="347.33,344.932 346.56,345.372 334.819,338.522 322.285,331.231 322.285,330.328 
						334.819,337.619 					"/>
					<g>
						<g style="enable-background:new    ;">
							<g>
								<polygon style="fill:#FFFFFF;" points="296.406,266.751 296.401,267.555 289.107,271.793 289.112,270.99 								"/>
							</g>
							<g>
								<polygon style="fill:#886CC3;" points="289.112,270.99 289.107,271.793 283.946,268.813 283.951,268.01 								"/>
							</g>
							<g>
								<polygon style="fill:#CDC4FD;" points="296.406,266.751 289.112,270.99 283.951,268.01 291.245,263.771 								"/>
							</g>
						</g>
						<g style="enable-background:new    ;">
							<g>
								<polygon style="fill:#FFFFFF;" points="286.528,272.492 286.523,273.295 279.229,277.534 279.234,276.73 								"/>
							</g>
							<g>
								<polygon style="fill:#886CC3;" points="279.234,276.73 279.229,277.534 274.068,274.554 274.073,273.75 								"/>
							</g>
							<g>
								<polygon style="fill:#CDC4FD;" points="286.528,272.492 279.234,276.73 274.073,273.75 281.366,269.512 								"/>
							</g>
						</g>
						<g style="enable-background:new    ;">
							<g>
								<polygon style="fill:#FFFFFF;" points="307.474,273.141 307.469,273.945 290.297,283.924 290.302,283.12 								"/>
							</g>
							<g>
								<polygon style="fill:#886CC3;" points="290.302,283.12 290.297,283.924 281.508,278.85 281.513,278.046 								"/>
							</g>
							<g>
								<polygon style="fill:#CDC4FD;" points="307.474,273.141 290.302,283.12 281.513,278.046 298.685,268.066 								"/>
							</g>
						</g>
						<g style="enable-background:new    ;">
							<g>
								<polygon style="fill:#886CC3;" points="310.188,287.042 310.183,287.846 299.115,281.456 299.12,280.652 								"/>
							</g>
							<g>
								<polygon style="fill:#CDC4FD;" points="305.492,287.115 298.199,291.354 289.423,286.287 296.717,282.048 								"/>
							</g>
							<g>
								<polygon style="fill:#FFFFFF;" points="305.492,287.115 305.487,287.919 298.194,292.158 298.199,291.354 								"/>
							</g>
							<g>
								<polygon style="fill:#886CC3;" points="298.199,291.354 298.194,292.158 289.418,287.091 289.423,286.287 								"/>
							</g>
							<g>
								<polygon style="fill:#FFFFFF;" points="329.611,285.922 329.606,286.725 319.727,292.466 319.732,291.662 								"/>
							</g>
							<g>
								<polygon style="fill:#FFFFFF;" points="319.732,291.662 319.727,292.466 317.576,293.717 317.581,292.913 								"/>
							</g>
							<g>
								<polygon style="fill:#886CC3;" points="312.439,295.901 312.434,296.705 303.658,291.638 303.663,290.834 								"/>
							</g>
							<g>
								<polygon style="fill:#FFFFFF;" points="317.581,292.913 317.576,293.717 312.434,296.705 312.439,295.901 								"/>
							</g>
							<g>
								<polygon style="fill:#CDC4FD;" points="329.611,285.922 319.732,291.662 317.581,292.913 312.439,295.901 303.663,290.834 
									310.188,287.042 299.12,280.652 309.767,274.465 								"/>
							</g>
						</g>
						<g style="enable-background:new    ;">
							<g>
								<polygon style="fill:#FFFFFF;" points="340.679,292.312 340.674,293.116 320.33,304.938 320.335,304.134 								"/>
							</g>
							<g>
								<polygon style="fill:#886CC3;" points="320.335,304.134 320.33,304.938 311.554,299.871 311.559,299.068 								"/>
							</g>
							<g>
								<polygon style="fill:#CDC4FD;" points="340.679,292.312 320.335,304.134 311.559,299.068 331.903,287.245 								"/>
							</g>
						</g>
						<g style="enable-background:new    ;">
							<g>
								<polygon style="fill:#FFFFFF;" points="276.649,278.233 276.644,279.036 269.336,283.283 269.342,282.479 								"/>
							</g>
							<g>
								<polygon style="fill:#886CC3;" points="269.342,282.479 269.336,283.283 264.175,280.303 264.18,279.499 								"/>
							</g>
							<g>
								<polygon style="fill:#CDC4FD;" points="276.649,278.233 269.342,282.479 264.18,279.499 271.488,275.253 								"/>
							</g>
						</g>
						<g style="enable-background:new    ;">
							<g>
								<polygon style="fill:#FFFFFF;" points="266.757,283.981 266.752,284.785 259.458,289.024 259.463,288.22 								"/>
							</g>
							<g>
								<polygon style="fill:#886CC3;" points="259.463,288.22 259.458,289.024 254.297,286.044 254.302,285.24 								"/>
							</g>
							<g>
								<polygon style="fill:#CDC4FD;" points="266.757,283.981 259.463,288.22 254.302,285.24 261.595,281.001 								"/>
							</g>
						</g>
						<g style="enable-background:new    ;">
							<g>
								<polygon style="fill:#FFFFFF;" points="256.878,289.722 256.873,290.526 249.58,294.764 249.585,293.961 								"/>
							</g>
							<g>
								<polygon style="fill:#886CC3;" points="249.585,293.961 249.58,294.764 244.418,291.784 244.423,290.981 								"/>
							</g>
							<g>
								<polygon style="fill:#CDC4FD;" points="256.878,289.722 249.585,293.961 244.423,290.981 251.717,286.742 								"/>
							</g>
						</g>
						<g style="enable-background:new    ;">
							<g>
								<polygon style="fill:#FFFFFF;" points="247,295.463 246.995,296.267 239.687,300.513 239.692,299.71 								"/>
							</g>
							<g>
								<polygon style="fill:#886CC3;" points="239.692,299.71 239.687,300.513 234.526,297.533 234.531,296.73 								"/>
							</g>
							<g>
								<polygon style="fill:#CDC4FD;" points="247,295.463 239.692,299.71 234.531,296.73 241.839,292.483 								"/>
							</g>
						</g>
						<g style="enable-background:new    ;">
							<g>
								<polygon style="fill:#FFFFFF;" points="237.107,301.212 237.102,302.016 229.809,306.254 229.814,305.45 								"/>
							</g>
							<g>
								<polygon style="fill:#886CC3;" points="229.814,305.45 229.809,306.254 224.647,303.274 224.652,302.47 								"/>
							</g>
							<g>
								<polygon style="fill:#CDC4FD;" points="237.107,301.212 229.814,305.45 224.652,302.47 231.946,298.232 								"/>
							</g>
						</g>
						<g style="enable-background:new    ;">
							<g>
								<polygon style="fill:#FFFFFF;" points="227.229,306.952 227.224,307.756 219.93,311.995 219.935,311.191 								"/>
							</g>
							<g>
								<polygon style="fill:#886CC3;" points="219.935,311.191 219.93,311.995 214.769,309.015 214.774,308.211 								"/>
							</g>
							<g>
								<polygon style="fill:#CDC4FD;" points="227.229,306.952 219.935,311.191 214.774,308.211 222.068,303.973 								"/>
							</g>
						</g>
						<g style="enable-background:new    ;">
							<g>
								<polygon style="fill:#FFFFFF;" points="217.35,312.693 217.345,313.497 210.038,317.744 210.043,316.94 								"/>
							</g>
							<g>
								<polygon style="fill:#886CC3;" points="210.043,316.94 210.038,317.744 204.876,314.764 204.882,313.96 								"/>
							</g>
							<g>
								<polygon style="fill:#CDC4FD;" points="217.35,312.693 210.043,316.94 204.882,313.96 212.189,309.713 								"/>
							</g>
						</g>
						<g style="enable-background:new    ;">
							<g>
								<polygon style="fill:#FFFFFF;" points="207.458,318.442 207.453,319.246 200.159,323.484 200.164,322.681 								"/>
							</g>
							<g>
								<polygon style="fill:#886CC3;" points="200.164,322.681 200.159,323.484 194.998,320.505 195.003,319.701 								"/>
							</g>
							<g>
								<polygon style="fill:#CDC4FD;" points="207.458,318.442 200.164,322.681 195.003,319.701 202.297,315.462 								"/>
							</g>
						</g>
						<g style="enable-background:new    ;">
							<g>
								<polygon style="fill:#FFFFFF;" points="197.579,324.183 197.574,324.987 190.281,329.225 190.286,328.421 								"/>
							</g>
							<g>
								<polygon style="fill:#886CC3;" points="190.286,328.421 190.281,329.225 185.119,326.245 185.124,325.441 								"/>
							</g>
							<g>
								<polygon style="fill:#CDC4FD;" points="197.579,324.183 190.286,328.421 185.124,325.441 192.418,321.203 								"/>
							</g>
						</g>
						<g style="enable-background:new    ;">
							<g>
								<polygon style="fill:#FFFFFF;" points="187.701,329.923 187.696,330.727 180.388,334.974 180.393,334.17 								"/>
							</g>
							<g>
								<polygon style="fill:#886CC3;" points="180.393,334.17 180.388,334.974 175.227,331.994 175.232,331.19 								"/>
							</g>
							<g>
								<polygon style="fill:#CDC4FD;" points="187.701,329.923 180.393,334.17 175.232,331.19 182.54,326.944 								"/>
							</g>
						</g>
						<g style="enable-background:new    ;">
							<g>
								<polygon style="fill:#FFFFFF;" points="177.822,335.664 177.817,336.468 170.51,340.715 170.515,339.911 								"/>
							</g>
							<g>
								<polygon style="fill:#886CC3;" points="170.515,339.911 170.51,340.715 165.348,337.735 165.354,336.931 								"/>
							</g>
							<g>
								<polygon style="fill:#CDC4FD;" points="177.822,335.664 170.515,339.911 165.354,336.931 172.661,332.684 								"/>
							</g>
						</g>
						<g style="enable-background:new    ;">
							<g>
								<polygon style="fill:#FFFFFF;" points="167.93,341.413 167.925,342.217 160.632,346.456 160.636,345.652 								"/>
							</g>
							<g>
								<polygon style="fill:#886CC3;" points="160.636,345.652 160.632,346.456 155.47,343.476 155.475,342.672 								"/>
							</g>
							<g>
								<polygon style="fill:#CDC4FD;" points="167.93,341.413 160.636,345.652 155.475,342.672 162.769,338.433 								"/>
							</g>
						</g>
						<g style="enable-background:new    ;">
							<g>
								<polygon style="fill:#FFFFFF;" points="287.717,284.622 287.712,285.427 280.405,289.673 280.41,288.869 								"/>
							</g>
							<g>
								<polygon style="fill:#886CC3;" points="280.41,288.869 280.405,289.673 271.615,284.598 271.62,283.794 								"/>
							</g>
							<g>
								<polygon style="fill:#CDC4FD;" points="287.717,284.622 280.41,288.869 271.62,283.794 278.927,279.548 								"/>
							</g>
						</g>
						<g style="enable-background:new    ;">
							<g>
								<polygon style="fill:#FFFFFF;" points="277.825,290.371 277.82,291.175 270.526,295.414 270.531,294.61 								"/>
							</g>
							<g>
								<polygon style="fill:#886CC3;" points="270.531,294.61 270.526,295.414 261.736,290.339 261.741,289.535 								"/>
							</g>
							<g>
								<polygon style="fill:#CDC4FD;" points="277.825,290.371 270.531,294.61 261.741,289.535 269.035,285.297 								"/>
							</g>
						</g>
						<g style="enable-background:new    ;">
							<g>
								<polygon style="fill:#FFFFFF;" points="267.947,296.112 267.941,296.916 260.648,301.155 260.653,300.351 								"/>
							</g>
							<g>
								<polygon style="fill:#886CC3;" points="260.653,300.351 260.648,301.155 251.858,296.08 251.863,295.276 								"/>
							</g>
							<g>
								<polygon style="fill:#CDC4FD;" points="267.947,296.112 260.653,300.351 251.863,295.276 259.157,291.037 								"/>
							</g>
						</g>
						<g style="enable-background:new    ;">
							<g>
								<polygon style="fill:#FFFFFF;" points="258.068,301.853 258.063,302.657 250.755,306.904 250.76,306.1 								"/>
							</g>
							<g>
								<polygon style="fill:#886CC3;" points="250.76,306.1 250.755,306.904 241.965,301.829 241.971,301.025 								"/>
							</g>
							<g>
								<polygon style="fill:#CDC4FD;" points="258.068,301.853 250.76,306.1 241.971,301.025 249.278,296.778 								"/>
							</g>
						</g>
						<g style="enable-background:new    ;">
							<g>
								<polygon style="fill:#FFFFFF;" points="248.176,307.602 248.171,308.406 240.877,312.644 240.882,311.84 								"/>
							</g>
							<g>
								<polygon style="fill:#886CC3;" points="240.882,311.84 240.877,312.644 232.087,307.569 232.092,306.766 								"/>
							</g>
							<g>
								<polygon style="fill:#CDC4FD;" points="248.176,307.602 240.882,311.84 232.092,306.766 239.386,302.527 								"/>
							</g>
						</g>
						<g style="enable-background:new    ;">
							<g>
								<polygon style="fill:#FFFFFF;" points="237.347,313.895 237.342,314.699 230.034,318.945 230.04,318.142 								"/>
							</g>
							<g>
								<polygon style="fill:#886CC3;" points="230.04,318.142 230.034,318.945 221.244,313.87 221.249,313.067 								"/>
							</g>
							<g>
								<polygon style="fill:#CDC4FD;" points="237.347,313.895 230.04,318.142 221.249,313.067 228.557,308.82 								"/>
							</g>
						</g>
						<g style="enable-background:new    ;">
							<g>
								<polygon style="fill:#FFFFFF;" points="227.454,319.644 227.449,320.448 220.156,324.686 220.161,323.882 								"/>
							</g>
							<g>
								<polygon style="fill:#886CC3;" points="220.161,323.882 220.156,324.686 211.366,319.611 211.371,318.807 								"/>
							</g>
							<g>
								<polygon style="fill:#CDC4FD;" points="227.454,319.644 220.161,323.882 211.371,318.807 218.665,314.569 								"/>
							</g>
						</g>
						<g style="enable-background:new    ;">
							<g>
								<polygon style="fill:#FFFFFF;" points="217.576,325.384 217.571,326.188 210.277,330.427 210.282,329.623 								"/>
							</g>
							<g>
								<polygon style="fill:#886CC3;" points="210.282,329.623 210.277,330.427 201.488,325.352 201.493,324.548 								"/>
							</g>
							<g>
								<polygon style="fill:#CDC4FD;" points="217.576,325.384 210.282,329.623 201.493,324.548 208.786,320.31 								"/>
							</g>
						</g>
						<g style="enable-background:new    ;">
							<g>
								<polygon style="fill:#FFFFFF;" points="207.698,331.125 207.693,331.929 200.385,336.176 200.39,335.372 								"/>
							</g>
							<g>
								<polygon style="fill:#886CC3;" points="200.39,335.372 200.385,336.176 191.595,331.101 191.6,330.297 								"/>
							</g>
							<g>
								<polygon style="fill:#CDC4FD;" points="207.698,331.125 200.39,335.372 191.6,330.297 198.908,326.05 								"/>
							</g>
						</g>
						<g style="enable-background:new    ;">
							<g>
								<polygon style="fill:#FFFFFF;" points="197.805,336.874 197.8,337.678 190.506,341.917 190.512,341.112 								"/>
							</g>
							<g>
								<polygon style="fill:#886CC3;" points="190.512,341.112 190.506,341.917 181.716,336.842 181.721,336.038 								"/>
							</g>
							<g>
								<polygon style="fill:#CDC4FD;" points="197.805,336.874 190.512,341.112 181.721,336.038 189.015,331.799 								"/>
							</g>
						</g>
						<g style="enable-background:new    ;">
							<g>
								<polygon style="fill:#FFFFFF;" points="187.927,342.615 187.922,343.419 180.628,347.657 180.633,346.853 								"/>
							</g>
							<g>
								<polygon style="fill:#886CC3;" points="180.633,346.853 180.628,347.657 171.838,342.582 171.843,341.779 								"/>
							</g>
							<g>
								<polygon style="fill:#CDC4FD;" points="187.927,342.615 180.633,346.853 171.843,341.779 179.137,337.54 								"/>
							</g>
						</g>
						<g style="enable-background:new    ;">
							<g>
								<polygon style="fill:#FFFFFF;" points="178.998,347.803 178.993,348.607 171.7,352.846 171.705,352.042 								"/>
							</g>
							<g>
								<polygon style="fill:#886CC3;" points="171.705,352.042 171.7,352.846 162.91,347.771 162.915,346.967 								"/>
							</g>
							<g>
								<polygon style="fill:#CDC4FD;" points="178.998,347.803 171.705,352.042 162.915,346.967 170.208,342.729 								"/>
							</g>
						</g>
						<g style="enable-background:new    ;">
							<g>
								<polygon style="fill:#FFFFFF;" points="295.614,292.856 295.609,293.66 288.301,297.906 288.306,297.103 								"/>
							</g>
							<g>
								<polygon style="fill:#886CC3;" points="288.306,297.103 288.301,297.906 279.525,292.84 279.53,292.036 								"/>
							</g>
							<g>
								<polygon style="fill:#CDC4FD;" points="295.614,292.856 288.306,297.103 279.53,292.036 286.838,287.789 								"/>
							</g>
						</g>
						<g style="enable-background:new    ;">
							<g>
								<polygon style="fill:#FFFFFF;" points="285.722,298.605 285.716,299.409 278.423,303.647 278.428,302.844 								"/>
							</g>
							<g>
								<polygon style="fill:#886CC3;" points="278.428,302.844 278.423,303.647 269.647,298.581 269.652,297.777 								"/>
							</g>
							<g>
								<polygon style="fill:#CDC4FD;" points="285.722,298.605 278.428,302.844 269.652,297.777 276.946,293.538 								"/>
							</g>
						</g>
						<g style="enable-background:new    ;">
							<g>
								<polygon style="fill:#FFFFFF;" points="275.843,304.346 275.838,305.15 268.544,309.388 268.549,308.584 								"/>
							</g>
							<g>
								<polygon style="fill:#886CC3;" points="268.549,308.584 268.544,309.388 259.769,304.321 259.774,303.518 								"/>
							</g>
							<g>
								<polygon style="fill:#CDC4FD;" points="275.843,304.346 268.549,308.584 259.774,303.518 267.067,299.279 								"/>
							</g>
						</g>
						<g style="enable-background:new    ;">
							<g>
								<polygon style="fill:#FFFFFF;" points="265.965,310.086 265.959,310.89 258.652,315.137 258.657,314.333 								"/>
							</g>
							<g>
								<polygon style="fill:#886CC3;" points="258.657,314.333 258.652,315.137 249.876,310.07 249.881,309.266 								"/>
							</g>
							<g>
								<polygon style="fill:#CDC4FD;" points="265.965,310.086 258.657,314.333 249.881,309.266 257.189,305.02 								"/>
							</g>
						</g>
						<g style="enable-background:new    ;">
							<g>
								<polygon style="fill:#FFFFFF;" points="255.122,316.387 255.117,317.191 247.823,321.43 247.828,320.626 								"/>
							</g>
							<g>
								<polygon style="fill:#886CC3;" points="247.828,320.626 247.823,321.43 239.048,316.363 239.052,315.559 								"/>
							</g>
							<g>
								<polygon style="fill:#CDC4FD;" points="255.122,316.387 247.828,320.626 239.052,315.559 246.346,311.321 								"/>
							</g>
						</g>
						<g style="enable-background:new    ;">
							<g>
								<polygon style="fill:#FFFFFF;" points="245.243,322.128 245.238,322.932 237.931,327.179 237.936,326.375 								"/>
							</g>
							<g>
								<polygon style="fill:#886CC3;" points="237.936,326.375 237.931,327.179 229.155,322.112 229.16,321.308 								"/>
							</g>
							<g>
								<polygon style="fill:#CDC4FD;" points="245.243,322.128 237.936,326.375 229.16,321.308 236.468,317.061 								"/>
							</g>
						</g>
						<g style="enable-background:new    ;">
							<g>
								<polygon style="fill:#FFFFFF;" points="235.351,327.877 235.346,328.681 228.052,332.919 228.057,332.116 								"/>
							</g>
							<g>
								<polygon style="fill:#886CC3;" points="228.057,332.116 228.052,332.919 219.276,327.853 219.281,327.049 								"/>
							</g>
							<g>
								<polygon style="fill:#CDC4FD;" points="235.351,327.877 228.057,332.116 219.281,327.049 226.575,322.81 								"/>
							</g>
						</g>
						<g style="enable-background:new    ;">
							<g>
								<polygon style="fill:#FFFFFF;" points="225.473,333.618 225.467,334.422 218.174,338.66 218.179,337.856 								"/>
							</g>
							<g>
								<polygon style="fill:#886CC3;" points="218.179,337.856 218.174,338.66 209.398,333.594 209.403,332.79 								"/>
							</g>
							<g>
								<polygon style="fill:#CDC4FD;" points="225.473,333.618 218.179,337.856 209.403,332.79 216.697,328.551 								"/>
							</g>
						</g>
						<g style="enable-background:new    ;">
							<g>
								<polygon style="fill:#FFFFFF;" points="215.594,339.359 215.589,340.162 208.281,344.409 208.286,343.605 								"/>
							</g>
							<g>
								<polygon style="fill:#886CC3;" points="208.286,343.605 208.281,344.409 199.505,339.342 199.511,338.539 								"/>
							</g>
							<g>
								<polygon style="fill:#CDC4FD;" points="215.594,339.359 208.286,343.605 199.511,338.539 206.818,334.292 								"/>
							</g>
						</g>
						<g style="enable-background:new    ;">
							<g>
								<polygon style="fill:#FFFFFF;" points="205.702,345.108 205.697,345.911 198.403,350.15 198.408,349.346 								"/>
							</g>
							<g>
								<polygon style="fill:#886CC3;" points="198.408,349.346 198.403,350.15 189.627,345.083 189.632,344.279 								"/>
							</g>
							<g>
								<polygon style="fill:#CDC4FD;" points="205.702,345.108 198.408,349.346 189.632,344.279 196.926,340.041 								"/>
							</g>
						</g>
						<g style="enable-background:new    ;">
							<g>
								<polygon style="fill:#FFFFFF;" points="196.298,350.572 196.293,351.376 182.768,359.236 182.773,358.432 								"/>
							</g>
							<g>
								<polygon style="fill:#886CC3;" points="182.773,358.432 182.768,359.236 173.992,354.169 173.997,353.365 								"/>
							</g>
							<g>
								<polygon style="fill:#CDC4FD;" points="196.298,350.572 182.773,358.432 173.997,353.365 187.522,345.505 								"/>
							</g>
						</g>
						<g style="enable-background:new    ;">
							<g>
								<polygon style="fill:#FFFFFF;" points="309.854,297.403 309.849,298.207 302.541,302.454 302.546,301.65 								"/>
							</g>
							<g>
								<polygon style="fill:#886CC3;" points="302.546,301.65 302.541,302.454 293.766,297.387 293.771,296.583 								"/>
							</g>
							<g>
								<polygon style="fill:#CDC4FD;" points="309.854,297.403 302.546,301.65 293.771,296.583 301.078,292.336 								"/>
							</g>
						</g>
						<g style="enable-background:new    ;">
							<g>
								<polygon style="fill:#FFFFFF;" points="299.961,303.152 299.956,303.956 292.663,308.194 292.668,307.391 								"/>
							</g>
							<g>
								<polygon style="fill:#886CC3;" points="292.668,307.391 292.663,308.194 283.887,303.128 283.892,302.324 								"/>
							</g>
							<g>
								<polygon style="fill:#CDC4FD;" points="299.961,303.152 292.668,307.391 283.892,302.324 291.185,298.085 								"/>
							</g>
						</g>
						<g style="enable-background:new    ;">
							<g>
								<polygon style="fill:#FFFFFF;" points="290.083,308.893 290.078,309.697 282.784,313.935 282.789,313.131 								"/>
							</g>
							<g>
								<polygon style="fill:#886CC3;" points="282.789,313.131 282.784,313.935 274.008,308.868 274.013,308.065 								"/>
							</g>
							<g>
								<polygon style="fill:#CDC4FD;" points="290.083,308.893 282.789,313.131 274.013,308.065 281.307,303.826 								"/>
							</g>
						</g>
						<g style="enable-background:new    ;">
							<g>
								<polygon style="fill:#FFFFFF;" points="280.205,314.634 280.199,315.437 272.892,319.684 272.897,318.88 								"/>
							</g>
							<g>
								<polygon style="fill:#886CC3;" points="272.897,318.88 272.892,319.684 264.116,314.617 264.121,313.813 								"/>
							</g>
							<g>
								<polygon style="fill:#CDC4FD;" points="280.205,314.634 272.897,318.88 264.121,313.813 271.429,309.567 								"/>
							</g>
						</g>
						<g style="enable-background:new    ;">
							<g>
								<polygon style="fill:#FFFFFF;" points="270.312,320.383 270.307,321.186 263.013,325.425 263.018,324.621 								"/>
							</g>
							<g>
								<polygon style="fill:#886CC3;" points="263.018,324.621 263.013,325.425 254.238,320.358 254.243,319.554 								"/>
							</g>
							<g>
								<polygon style="fill:#CDC4FD;" points="270.312,320.383 263.018,324.621 254.243,319.554 261.536,315.315 								"/>
							</g>
						</g>
						<g style="enable-background:new    ;">
							<g>
								<polygon style="fill:#FFFFFF;" points="259.483,326.675 259.478,327.479 252.171,331.726 252.176,330.922 								"/>
							</g>
							<g>
								<polygon style="fill:#886CC3;" points="252.176,330.922 252.171,331.726 243.395,326.659 243.4,325.855 								"/>
							</g>
							<g>
								<polygon style="fill:#CDC4FD;" points="259.483,326.675 252.176,330.922 243.4,325.855 250.708,321.609 								"/>
							</g>
						</g>
						<g style="enable-background:new    ;">
							<g>
								<polygon style="fill:#FFFFFF;" points="249.591,332.424 249.586,333.228 242.292,337.467 242.297,336.663 								"/>
							</g>
							<g>
								<polygon style="fill:#886CC3;" points="242.297,336.663 242.292,337.467 233.516,332.4 233.522,331.596 								"/>
							</g>
							<g>
								<polygon style="fill:#CDC4FD;" points="249.591,332.424 242.297,336.663 233.522,331.596 240.815,327.358 								"/>
							</g>
						</g>
						<g style="enable-background:new    ;">
							<g>
								<polygon style="fill:#FFFFFF;" points="239.712,338.165 239.707,338.969 232.414,343.207 232.419,342.403 								"/>
							</g>
							<g>
								<polygon style="fill:#886CC3;" points="232.419,342.403 232.414,343.207 223.638,338.141 223.643,337.337 								"/>
							</g>
							<g>
								<polygon style="fill:#CDC4FD;" points="239.712,338.165 232.419,342.403 223.643,337.337 230.937,333.098 								"/>
							</g>
						</g>
						<g style="enable-background:new    ;">
							<g>
								<polygon style="fill:#FFFFFF;" points="229.834,343.905 229.829,344.71 222.521,348.956 222.526,348.152 								"/>
							</g>
							<g>
								<polygon style="fill:#886CC3;" points="222.526,348.152 222.521,348.956 213.746,343.889 213.751,343.086 								"/>
							</g>
							<g>
								<polygon style="fill:#CDC4FD;" points="229.834,343.905 222.526,348.152 213.751,343.086 221.058,338.839 								"/>
							</g>
						</g>
						<g style="enable-background:new    ;">
							<g>
								<polygon style="fill:#FFFFFF;" points="219.941,349.654 219.936,350.458 212.643,354.697 212.648,353.893 								"/>
							</g>
							<g>
								<polygon style="fill:#886CC3;" points="212.648,353.893 212.643,354.697 203.867,349.63 203.872,348.826 								"/>
							</g>
							<g>
								<polygon style="fill:#CDC4FD;" points="219.941,349.654 212.648,353.893 203.872,348.826 211.166,344.588 								"/>
							</g>
						</g>
						<g style="enable-background:new    ;">
							<g>
								<polygon style="fill:#FFFFFF;" points="210.063,355.395 210.058,356.199 193.836,365.626 193.841,364.822 								"/>
							</g>
							<g>
								<polygon style="fill:#886CC3;" points="193.841,364.822 193.836,365.626 185.06,360.559 185.065,359.756 								"/>
							</g>
							<g>
								<polygon style="fill:#CDC4FD;" points="210.063,355.395 193.841,364.822 185.065,359.756 201.287,350.328 								"/>
							</g>
						</g>
						<g style="enable-background:new    ;">
							<g>
								<polygon style="fill:#FFFFFF;" points="317.75,305.637 317.745,306.44 310.438,310.687 310.443,309.883 								"/>
							</g>
							<g>
								<polygon style="fill:#886CC3;" points="310.443,309.883 310.438,310.687 301.662,305.62 301.667,304.816 								"/>
							</g>
							<g>
								<polygon style="fill:#CDC4FD;" points="317.75,305.637 310.443,309.883 301.667,304.816 308.975,300.57 								"/>
							</g>
						</g>
						<g style="enable-background:new    ;">
							<g>
								<polygon style="fill:#FFFFFF;" points="307.858,311.385 307.853,312.189 300.559,316.428 300.564,315.624 								"/>
							</g>
							<g>
								<polygon style="fill:#886CC3;" points="300.564,315.624 300.559,316.428 291.783,311.361 291.789,310.557 								"/>
							</g>
							<g>
								<polygon style="fill:#CDC4FD;" points="307.858,311.385 300.564,315.624 291.789,310.557 299.082,306.319 								"/>
							</g>
						</g>
						<g style="enable-background:new    ;">
							<g>
								<polygon style="fill:#FFFFFF;" points="297.979,317.126 297.974,317.93 290.681,322.169 290.686,321.365 								"/>
							</g>
							<g>
								<polygon style="fill:#886CC3;" points="290.686,321.365 290.681,322.169 281.905,317.102 281.91,316.298 								"/>
							</g>
							<g>
								<polygon style="fill:#CDC4FD;" points="297.979,317.126 290.686,321.365 281.91,316.298 289.204,312.06 								"/>
							</g>
						</g>
						<g style="enable-background:new    ;">
							<g>
								<polygon style="fill:#FFFFFF;" points="288.101,322.867 288.096,323.671 280.788,327.917 280.793,327.114 								"/>
							</g>
							<g>
								<polygon style="fill:#886CC3;" points="280.793,327.114 280.788,327.917 272.013,322.851 272.018,322.047 								"/>
							</g>
							<g>
								<polygon style="fill:#CDC4FD;" points="288.101,322.867 280.793,327.114 272.018,322.047 279.325,317.8 								"/>
							</g>
						</g>
						<g style="enable-background:new    ;">
							<g>
								<polygon style="fill:#FFFFFF;" points="277.258,329.168 277.253,329.972 269.96,334.21 269.965,333.406 								"/>
							</g>
							<g>
								<polygon style="fill:#886CC3;" points="269.965,333.406 269.96,334.21 261.184,329.144 261.189,328.34 								"/>
							</g>
							<g>
								<polygon style="fill:#CDC4FD;" points="277.258,329.168 269.965,333.406 261.189,328.34 268.482,324.101 								"/>
							</g>
						</g>
						<g style="enable-background:new    ;">
							<g>
								<polygon style="fill:#FFFFFF;" points="267.38,334.909 267.375,335.712 260.067,339.959 260.072,339.155 								"/>
							</g>
							<g>
								<polygon style="fill:#886CC3;" points="260.072,339.155 260.067,339.959 251.292,334.893 251.297,334.089 								"/>
							</g>
							<g>
								<polygon style="fill:#CDC4FD;" points="267.38,334.909 260.072,339.155 251.297,334.089 258.604,329.842 								"/>
							</g>
						</g>
						<g style="enable-background:new    ;">
							<g>
								<polygon style="fill:#FFFFFF;" points="257.487,340.658 257.482,341.461 250.189,345.7 250.194,344.896 								"/>
							</g>
							<g>
								<polygon style="fill:#886CC3;" points="250.194,344.896 250.189,345.7 241.413,340.633 241.418,339.829 								"/>
							</g>
							<g>
								<polygon style="fill:#CDC4FD;" points="257.487,340.658 250.194,344.896 241.418,339.829 248.712,335.591 								"/>
							</g>
						</g>
						<g style="enable-background:new    ;">
							<g>
								<polygon style="fill:#FFFFFF;" points="247.609,346.398 247.604,347.202 240.31,351.441 240.315,350.637 								"/>
							</g>
							<g>
								<polygon style="fill:#886CC3;" points="240.315,350.637 240.31,351.441 231.534,346.374 231.54,345.57 								"/>
							</g>
							<g>
								<polygon style="fill:#CDC4FD;" points="247.609,346.398 240.315,350.637 231.54,345.57 238.833,341.332 								"/>
							</g>
						</g>
						<g style="enable-background:new    ;">
							<g>
								<polygon style="fill:#FFFFFF;" points="351.747,298.702 351.742,299.506 340.802,305.864 340.807,305.06 								"/>
							</g>
							<g>
								<polygon style="fill:#886CC3;" points="340.807,305.06 340.802,305.864 332.026,300.797 332.031,299.993 								"/>
							</g>
							<g>
								<polygon style="fill:#CDC4FD;" points="351.747,298.702 340.807,305.06 332.031,299.993 342.971,293.635 								"/>
							</g>
						</g>
						<g style="enable-background:new    ;">
							<g>
								<polygon style="fill:#FFFFFF;" points="338.697,306.286 338.692,307.09 331.398,311.328 331.404,310.525 								"/>
							</g>
							<g>
								<polygon style="fill:#886CC3;" points="331.404,310.525 331.398,311.328 322.622,306.262 322.628,305.458 								"/>
							</g>
							<g>
								<polygon style="fill:#CDC4FD;" points="338.697,306.286 331.404,310.525 322.628,305.458 329.921,301.219 								"/>
							</g>
						</g>
						<g style="enable-background:new    ;">
							<g>
								<polygon style="fill:#FFFFFF;" points="328.819,312.027 328.814,312.831 321.506,317.077 321.511,316.273 								"/>
							</g>
							<g>
								<polygon style="fill:#886CC3;" points="321.511,316.273 321.506,317.077 312.73,312.011 312.735,311.207 								"/>
							</g>
							<g>
								<polygon style="fill:#CDC4FD;" points="328.819,312.027 321.511,316.273 312.735,311.207 320.043,306.96 								"/>
							</g>
						</g>
						<g style="enable-background:new    ;">
							<g>
								<polygon style="fill:#FFFFFF;" points="318.926,317.776 318.921,318.579 311.628,322.818 311.633,322.014 								"/>
							</g>
							<g>
								<polygon style="fill:#886CC3;" points="311.633,322.014 311.628,322.818 302.852,317.751 302.857,316.948 								"/>
							</g>
							<g>
								<polygon style="fill:#CDC4FD;" points="318.926,317.776 311.633,322.014 302.857,316.948 310.15,312.709 								"/>
							</g>
						</g>
						<g style="enable-background:new    ;">
							<g>
								<polygon style="fill:#FFFFFF;" points="308.573,323.793 308.568,324.596 254.55,355.988 254.555,355.184 								"/>
							</g>
							<g>
								<polygon style="fill:#886CC3;" points="254.555,355.184 254.55,355.988 245.775,350.921 245.78,350.117 								"/>
							</g>
							<g>
								<polygon style="fill:#CDC4FD;" points="308.573,323.793 254.555,355.184 245.78,350.117 299.797,318.726 								"/>
							</g>
						</g>
						<g style="enable-background:new    ;">
							<g>
								<polygon style="fill:#FFFFFF;" points="237.73,352.139 237.725,352.943 230.418,357.19 230.423,356.386 								"/>
							</g>
							<g>
								<polygon style="fill:#886CC3;" points="230.423,356.386 230.418,357.19 221.642,352.123 221.647,351.319 								"/>
							</g>
							<g>
								<polygon style="fill:#CDC4FD;" points="237.73,352.139 230.423,356.386 221.647,351.319 228.955,347.072 								"/>
							</g>
						</g>
						<g style="enable-background:new    ;">
							<g>
								<polygon style="fill:#FFFFFF;" points="251.97,356.686 251.965,357.49 244.658,361.737 244.663,360.933 								"/>
							</g>
							<g>
								<polygon style="fill:#886CC3;" points="244.663,360.933 244.658,361.737 235.882,356.67 235.887,355.866 								"/>
							</g>
							<g>
								<polygon style="fill:#CDC4FD;" points="251.97,356.686 244.663,360.933 235.887,355.866 243.195,351.619 								"/>
							</g>
						</g>
						<g style="enable-background:new    ;">
							<g>
								<polygon style="fill:#FFFFFF;" points="227.838,357.888 227.833,358.692 220.539,362.93 220.544,362.127 								"/>
							</g>
							<g>
								<polygon style="fill:#886CC3;" points="220.544,362.127 220.539,362.93 211.764,357.864 211.769,357.06 								"/>
							</g>
							<g>
								<polygon style="fill:#CDC4FD;" points="227.838,357.888 220.544,362.127 211.769,357.06 219.062,352.821 								"/>
							</g>
						</g>
						<g style="enable-background:new    ;">
							<g>
								<polygon style="fill:#FFFFFF;" points="242.078,362.435 242.073,363.239 234.779,367.477 234.784,366.673 								"/>
							</g>
							<g>
								<polygon style="fill:#886CC3;" points="234.784,366.673 234.779,367.477 226.003,362.411 226.008,361.607 								"/>
							</g>
							<g>
								<polygon style="fill:#CDC4FD;" points="242.078,362.435 234.784,366.673 226.008,361.607 233.302,357.368 								"/>
							</g>
						</g>
						<g style="enable-background:new    ;">
							<g>
								<polygon style="fill:#FFFFFF;" points="218.435,363.353 218.43,364.156 204.904,372.016 204.909,371.213 								"/>
							</g>
							<g>
								<polygon style="fill:#886CC3;" points="204.909,371.213 204.904,372.016 196.128,366.95 196.133,366.146 								"/>
							</g>
							<g>
								<polygon style="fill:#CDC4FD;" points="218.435,363.353 204.909,371.213 196.133,366.146 209.659,358.286 								"/>
							</g>
						</g>
						<g style="enable-background:new    ;">
							<g>
								<polygon style="fill:#FFFFFF;" points="232.199,368.176 232.194,368.979 224.901,373.218 224.906,372.414 								"/>
							</g>
							<g>
								<polygon style="fill:#886CC3;" points="224.906,372.414 224.901,373.218 216.125,368.151 216.13,367.348 								"/>
							</g>
							<g>
								<polygon style="fill:#CDC4FD;" points="232.199,368.176 224.906,372.414 216.13,367.348 223.424,363.109 								"/>
							</g>
						</g>
						<g style="enable-background:new    ;">
							<g>
								<polygon style="fill:#FFFFFF;" points="223.271,373.364 223.266,374.168 215.973,378.407 215.978,377.603 								"/>
							</g>
							<g>
								<polygon style="fill:#886CC3;" points="215.978,377.603 215.973,378.407 207.197,373.34 207.202,372.536 								"/>
							</g>
							<g>
								<polygon style="fill:#CDC4FD;" points="223.271,373.364 215.978,377.603 207.202,372.536 214.495,368.298 								"/>
							</g>
						</g>
					</g>
					<g>
						<path style="fill:#FFFFFF;" d="M244.798,410.158c0.99,0.013,1.955-0.305,2.766-0.866l2.545-1.489l5.09-2.977l10.179-5.954
							l20.401-11.835l40.805-23.665l40.897-23.506l20.45-11.751l10.246-5.838l5.123-2.919l2.562-1.46
							c0.767-0.511,1.977-0.824,2.051-1.915c-0.062,1.096-1.275,1.427-2.034,1.945l-2.545,1.489l-5.09,2.977l-10.179,5.955
							l-20.401,11.835l-40.806,23.665l-40.897,23.506l-20.45,11.751l-10.246,5.839l-5.123,2.919l-2.562,1.46
							C246.765,409.872,245.786,410.184,244.798,410.158z"/>
					</g>
					<path style="fill:#886CC3;" d="M276.882,258.455l-119.888,69.216c-1.511,0.872-3.96,0.872-5.471,0l125.359-72.374
						C278.393,256.168,278.393,257.583,276.882,258.455z"/>
				</g>
			</g>
		</g>
		<path style="fill:#886CC3;" d="M244.792,410.137v5.433c-0.831,0-1.566-0.16-2.173-0.512l-113.972-66.223
			c-0.575-0.351-0.895-0.799-0.895-1.246v-5.465c0,0.48,0.288,0.927,0.895,1.279l113.94,66.223
			C243.194,409.978,243.993,410.137,244.792,410.137z"/>
		<path style="fill:#886CC3;" d="M127.751,340.654l-4.73-2.749c-0.384-0.224-0.639-0.703-0.639-1.438l-0.352-137.176
			c0-0.575,0.16-1.406,0.448-2.237l4.698,2.589v0.16c-0.287,0.831-0.447,1.63-0.447,2.205l0.383,137.208
			c0,0.256,0.032,0.479,0.096,0.671c0.032,0.192,0.128,0.352,0.224,0.479C127.528,340.495,127.624,340.558,127.751,340.654z"/>
		<g>
			<path style="fill:#BDB3F5;" d="M128.646,343.403c19.152,10.759,38.101,21.867,57.158,32.788
				c18.923,11.152,37.954,22.118,56.782,33.435c-19.153-10.758-38.102-21.865-57.158-32.788
				C166.506,365.685,147.475,354.718,128.646,343.403z"/>
		</g>
		<g>
			<path style="fill:#BDB3F5;" d="M127.103,202.137c0.322,22.868,0.24,45.736,0.374,68.604c-0.132,22.868-0.051,45.736-0.374,68.604
				c-0.323-22.868-0.242-45.736-0.374-68.604C126.863,247.873,126.781,225.005,127.103,202.137z"/>
		</g>
	</g>
	<g>
		<g>
			<path style="fill:#C3B9FD;" d="M212.443,196.043l-94.179,54.374c-1.515,0.875-2.744,0.356-2.744-1.16V115.991
				c0-1.515,1.229-3.453,2.744-4.328l94.179-54.374c1.515-0.875,2.744-0.356,2.744,1.16v133.267
				C215.187,193.23,213.958,195.168,212.443,196.043z"/>
			<path style="fill:#FFF0EB;" d="M118.52,127.993c0.01-0.306,0.504-1.305,1.247-1.735l92.544-53.428l-0.125,118.884
				c-0.01,0.297-0.515,1.311-1.243,1.731l-92.567,53.443L118.52,127.993z"/>
			<path style="fill:#886CC3;" d="M212.346,64.467c0,1.261-1.022,2.874-2.284,3.602c-1.261,0.728-2.283,0.296-2.283-0.965
				c0-1.261,1.022-2.874,2.283-3.602S212.346,63.206,212.346,64.467z"/>
			<path style="fill:#886CC3;" d="M206.527,67.854c0,1.261-1.022,2.874-2.284,3.602c-1.261,0.728-2.284,0.296-2.284-0.965
				s1.022-2.874,2.284-3.602C205.505,66.161,206.527,66.593,206.527,67.854z"/>
			
				<ellipse transform="matrix(0.6012 -0.7991 0.7991 0.6012 21.1486 187.513)" style="fill:#886CC3;" cx="198.426" cy="72.57" rx="3.036" ry="1.718"/>
			<g>
				<g>
					<g>
						<path style="fill:#B8ACFD;" d="M190.106,129.675c0,2.122-1.735,4.906-3.953,6.187c-2.169,1.252-3.857,0.445-3.857-1.677
							c0-2.169,1.688-4.881,3.857-6.133C188.37,126.771,190.106,127.506,190.106,129.675z"/>
						<path style="fill:#B8ACFD;" d="M201.683,122.991c0,2.122-1.735,4.906-3.953,6.187c-2.169,1.252-3.857,0.445-3.857-1.677
							c0-2.169,1.688-4.881,3.857-6.133C199.948,120.087,201.683,120.822,201.683,122.991z"/>
					</g>
					<g>
						<path style="fill:#B8ACFD;" d="M201.683,108.665c0,2.122-1.735,4.906-3.953,6.187c-2.169,1.252-3.857,0.445-3.857-1.677
							c0-2.169,1.688-4.881,3.857-6.133C199.948,105.761,201.683,106.496,201.683,108.665z"/>
					</g>
					<path style="fill:#B8ACFD;" d="M185.964,113.2l-53.102,30.659c-2.169,1.252-3.857,3.964-3.857,6.133
						c0,2.122,1.688,2.93,3.857,1.677l53.102-30.659c2.218-1.28,3.953-4.065,3.953-6.187
						C189.918,112.655,188.183,111.92,185.964,113.2z"/>
					<g>
						<path style="fill:#B8ACFD;" d="M201.683,138.584c0,2.122-1.735,4.906-3.953,6.187c-2.169,1.252-3.857,0.445-3.857-1.677
							c0-2.169,1.688-4.881,3.857-6.133C199.948,135.68,201.683,136.415,201.683,138.584z"/>
					</g>
					<path style="fill:#B8ACFD;" d="M185.964,143.12l-53.102,30.659c-2.169,1.252-3.857,3.964-3.857,6.133
						c0,2.122,1.688,2.929,3.857,1.677l53.102-30.659c2.218-1.281,3.953-4.065,3.953-6.187
						C189.918,142.574,188.183,141.839,185.964,143.12z"/>
					<g>
						<path style="fill:#B8ACFD;" d="M201.683,122.991c0,2.122-1.735,4.906-3.953,6.187c-2.169,1.252-3.857,0.445-3.857-1.677
							c0-2.169,1.688-4.881,3.857-6.133C199.948,120.087,201.683,120.822,201.683,122.991z"/>
					</g>
					<path style="fill:#B8ACFD;" d="M174.249,134.924l-41.203,23.788c-2.272,1.312-4.041,4.071-4.041,6.24
						c0,2.122,1.769,2.883,4.041,1.571l41.203-23.788c2.324-1.342,4.142-4.174,4.142-6.296
						C178.391,134.269,176.573,133.582,174.249,134.924z"/>
				</g>
				<g>
					<g>
						<path style="fill:#B8ACFD;" d="M190.106,175.896c0,2.122-1.735,4.906-3.953,6.187c-2.169,1.252-3.857,0.445-3.857-1.677
							c0-2.169,1.688-4.881,3.857-6.133C188.37,172.992,190.106,173.727,190.106,175.896z"/>
						<path style="fill:#B8ACFD;" d="M201.683,169.212c0,2.122-1.735,4.906-3.953,6.187c-2.169,1.253-3.857,0.445-3.857-1.677
							c0-2.169,1.688-4.881,3.857-6.133C199.948,166.308,201.683,167.043,201.683,169.212z"/>
					</g>
					<g>
						<path style="fill:#B8ACFD;" d="M201.683,154.886c0,2.122-1.735,4.906-3.953,6.187c-2.169,1.252-3.857,0.445-3.857-1.677
							c0-2.169,1.688-4.881,3.857-6.133C199.948,151.982,201.683,152.717,201.683,154.886z"/>
					</g>
					<path style="fill:#B8ACFD;" d="M185.964,159.421l-53.102,30.658c-2.169,1.253-3.857,3.964-3.857,6.133
						c0,2.122,1.688,2.929,3.857,1.677l53.102-30.659c2.218-1.281,3.953-4.065,3.953-6.187
						C189.918,158.876,188.183,158.141,185.964,159.421z"/>
					<g>
						<path style="fill:#B8ACFD;" d="M201.683,184.805c0,2.122-1.735,4.906-3.953,6.187c-2.169,1.252-3.857,0.444-3.857-1.677
							c0-2.169,1.688-4.881,3.857-6.133C199.948,181.901,201.683,182.636,201.683,184.805z"/>
					</g>
					<path style="fill:#B8ACFD;" d="M185.964,189.34l-53.102,30.659c-2.169,1.252-3.857,3.964-3.857,6.133
						c0,2.122,1.688,2.93,3.857,1.677l53.102-30.659c2.218-1.281,3.953-4.065,3.953-6.187
						C189.918,188.795,188.183,188.06,185.964,189.34z"/>
					<g>
						<path style="fill:#B8ACFD;" d="M201.683,169.212c0,2.122-1.735,4.906-3.953,6.187c-2.169,1.253-3.857,0.445-3.857-1.677
							c0-2.169,1.688-4.881,3.857-6.133C199.948,166.308,201.683,167.043,201.683,169.212z"/>
					</g>
					<path style="fill:#B8ACFD;" d="M174.249,181.145l-41.203,23.788c-2.272,1.312-4.041,4.07-4.041,6.239
						c0,2.122,1.769,2.883,4.041,1.571l41.203-23.788c2.324-1.342,4.142-4.174,4.142-6.296
						C178.391,180.49,176.573,179.803,174.249,181.145z"/>
				</g>
			</g>
		</g>
		<g>
			<g>
				<path style="fill:#B8ACFD;" d="M295.404,171.415l-94.179,54.374c-1.515,0.875-2.744,0.355-2.744-1.16V91.363
					c0-1.516,1.229-3.453,2.744-4.328l94.179-54.374c1.516-0.875,2.744-0.356,2.744,1.16v133.266
					C298.147,168.602,296.919,170.54,295.404,171.415z"/>
				<path style="fill:#FFF0EB;" d="M201.481,103.365c0.01-0.306,0.504-1.305,1.247-1.734l92.544-53.429l-0.125,118.884
					c-0.01,0.297-0.515,1.311-1.243,1.732l-92.566,53.443L201.481,103.365z"/>
				<path style="fill:#886CC3;" d="M295.306,39.84c0,1.261-1.022,2.874-2.283,3.602c-1.261,0.728-2.284,0.296-2.284-0.965
					s1.022-2.874,2.284-3.602C294.284,38.147,295.306,38.579,295.306,39.84z"/>
				<path style="fill:#886CC3;" d="M289.488,43.227c0,1.261-1.022,2.874-2.284,3.602c-1.261,0.728-2.283,0.296-2.283-0.965
					s1.022-2.874,2.283-3.602C288.465,41.533,289.488,41.965,289.488,43.227z"/>
				<path style="fill:#886CC3;" d="M283.67,46.624c0,1.261-1.022,2.874-2.284,3.602s-2.284,0.296-2.284-0.965
					c0-1.261,1.022-2.874,2.284-3.602S283.67,45.363,283.67,46.624z"/>
			</g>
			<g>
				<g>
					<path style="fill:#B8ACFD;" d="M275.626,82.902l1.979-1.143v2.753l2.662-1.537v1.817l-2.662,1.537v2.752l-1.979,1.143v-2.752
						l-2.681,1.548v-1.817l2.681-1.548V82.902z"/>
				</g>
				<g>
					<path style="fill:#B8ACFD;" d="M276.606,95.399c-5.184,2.993-9.402,1.211-9.402-3.973c0-5.184,4.218-11.838,9.402-14.831
						c5.184-2.993,9.402-1.21,9.402,3.975C286.008,85.754,281.79,92.406,276.606,95.399z M276.606,77.72
						c-4.564,2.635-8.277,8.492-8.277,13.057c0,4.563,3.713,6.133,8.277,3.498c4.564-2.635,8.277-8.492,8.277-13.055
						C284.883,76.655,281.17,75.085,276.606,77.72z"/>
				</g>
			</g>
		</g>
	</g>
	<g>
		<g>
			<path style="fill:#CDC4FD;" d="M254.787,223.878l-94.179,54.374c-1.515,0.875-2.744,0.355-2.744-1.16V143.826
				c0-1.516,1.229-3.453,2.744-4.328l94.179-54.374c1.515-0.875,2.744-0.356,2.744,1.16V219.55
				C257.531,221.065,256.302,223.003,254.787,223.878z"/>
			<path style="fill:#FFF4F0;" d="M160.864,155.828c0.01-0.306,0.504-1.305,1.247-1.734l92.544-53.429l-0.125,118.884
				c-0.01,0.297-0.516,1.311-1.243,1.732l-92.566,53.443L160.864,155.828z"/>
			<path style="fill:#886CC3;" d="M254.69,92.303c0,1.261-1.022,2.874-2.284,3.602c-1.261,0.728-2.284,0.296-2.284-0.965
				s1.022-2.874,2.284-3.602C253.667,90.609,254.69,91.042,254.69,92.303z"/>
			
				<ellipse transform="matrix(0.6012 -0.7991 0.7991 0.6012 20.8288 235.7482)" style="fill:#886CC3;" cx="246.588" cy="97.008" rx="3.036" ry="1.718"/>
			<path style="fill:#886CC3;" d="M243.053,99.087c0,1.261-1.022,2.874-2.284,3.602c-1.261,0.728-2.284,0.296-2.284-0.965
				c0-1.261,1.022-2.874,2.284-3.602C242.031,97.393,243.053,97.825,243.053,99.087z"/>
			<g>
				<g>
					<path style="fill:#FEC9C9;" d="M192.067,191.417c0,0-2.643-2.367-3.171,0.581c-0.529,2.948,1.698,15.147,4.417,11.328
						C196.031,199.507,192.067,191.417,192.067,191.417z"/>
					<path style="fill:#FEC9C9;" d="M223.54,173.246c0,0,2.643-5.419,3.171-3.081c0.529,2.338-1.698,17.108-4.417,16.428
						C219.575,185.913,223.54,173.246,223.54,173.246z"/>
				</g>
				<g>
					<path style="fill:#C43B71;" d="M217.727,205.543l-20.059,11.581c0,0-10.779,9.046-20.489,18.727
						c-5.894,5.876-9.737,13.853-9.737,20.244v14.743l40.256-23.242l40.255-23.242v-14.743c0-6.392-3.843-9.932-9.736-9.002
						C228.506,202.144,217.727,205.543,217.727,205.543z"/>
					<path style="fill:#FCBEBE;" d="M217.736,205.537c0,0-2.79,13.834-10.038,18.018c-7.248,4.184-10.038-6.427-10.038-6.427
						l1.947-19.476l16.181-9.342L217.736,205.537z"/>
					<path style="fill:#FEC9C9;" d="M224.338,173.666c0,9.19-8.55,29.021-16.64,33.692c-8.091,4.671-16.64-5.287-16.64-14.477
						c0-14.945,7.45-23.852,16.64-29.158C216.888,158.417,224.338,158.721,224.338,173.666z"/>
					<path style="fill:#291E40;" d="M225.221,172.244c0.06-0.308,0.145-0.834,0.219-1.515c0.708-5.803,1.334-23.434-17.739-12.422
						c-18.471,10.664-18.467,26.905-17.805,32.405c0.113,1.303,0.344,2.018,0.344,2.018l0.831-0.894c0,0,1.485,1.283,2.213,1.369
						c0.728,0.086,0.913-5.903,1.826-10.285c0.913-4.382,3.583-4.706,3.583-4.706s3.364-0.17,8.999-3.533
						c5.648-3.153,9.012-6.866,9.012-6.866s2.67-2.758,3.583,0.569c0.913,3.328,1.098,9.103,1.826,8.177
						c0.728-0.926,2.226-2.894,2.226-2.894l0.817-1.094C225.163,172.567,225.186,172.45,225.221,172.244z"/>
				</g>
				<g>
					<path style="fill:#886CC3;" d="M192.553,204.813c-2.76,2.051-5.368,1.69-5.825-0.806l-1.02-5.566
						c-0.457-2.496,1.409-6.182,4.169-8.232c0.789-0.587,1.535-0.484,1.666,0.23l2.203,12.02
						C193.876,203.172,193.343,204.226,192.553,204.813z"/>
					<path style="fill:#886CC3;" d="M222.85,187.05c2.76-1.136,5.368-4.508,5.825-7.532l1.02-6.744
						c0.457-3.024-1.409-4.555-4.169-3.419c-0.789,0.325-1.535,1.289-1.666,2.154l-2.203,14.563
						C221.527,186.937,222.06,187.374,222.85,187.05z"/>
					<g>
						<path style="fill:#886CC3;" d="M227.548,169.792l-2.097,0.991c0.805-8.113-0.645-13.094-4.315-14.804
							c-5.236-2.442-13.373,2.697-13.373,2.697s-8.303,4.372-13.517,12.842c-3.659,5.942-5.107,12.592-4.301,19.765l-2.097,1.432
							c-0.875-7.788,0.77-15.122,4.888-21.799c5.907-9.575,15.028-14.345,15.028-14.345s8.99-5.685,14.897-2.931
							C226.779,155.559,228.423,160.994,227.548,169.792z"/>
					</g>
					<g>
						<path style="fill:#886CC3;" d="M200.935,213.9c-7.253,2.045-9.807-9.298-9.912-9.782l1.036-0.798
							c0.025,0.113,2.536,11.267,9.174,9.396L200.935,213.9z"/>
					</g>
					<path style="fill:#3B2B5A;" d="M207.195,209.895c0,1.176-1.514,3.003-3.381,4.081c-1.867,1.078-3.381,0.999-3.381-0.177
						c0-1.176,1.514-3.003,3.381-4.081C205.681,208.641,207.195,208.72,207.195,209.895z"/>
				</g>
			</g>
		</g>
		<g>
			<path style="fill:#FFFFFF;" d="M244.224,139.287v23.021c0,0.251-0.041,0.524-0.121,0.808l-4.808,17.043
				c-0.277,0.983,0.666,1.131,1.368,0.215l13.044-17.03c0.395-0.516,0.871-0.946,1.36-1.228l29.8-16.886
				c1.276-0.736,2.31-2.367,2.31-3.643v-26.779c0-1.275-1.034-1.712-2.31-0.976l-38.332,21.812
				C245.258,136.38,244.224,138.012,244.224,139.287z"/>
			<g>
				<path style="fill:#3C7E9E;" d="M262.241,143.905c0,1.584-1.295,3.661-2.95,4.617c-1.619,0.934-2.878,0.332-2.878-1.252
					c0-1.619,1.26-3.643,2.878-4.577C260.946,141.738,262.241,142.287,262.241,143.905z"/>
				<path style="fill:#3C7E9E;" d="M270.881,138.917c0,1.584-1.295,3.661-2.95,4.617c-1.618,0.934-2.878,0.332-2.878-1.252
					c0-1.619,1.26-3.643,2.878-4.577C269.586,136.75,270.881,137.299,270.881,138.917z"/>
				<path style="fill:#3C7E9E;" d="M279.52,133.929c0,1.584-1.295,3.661-2.95,4.617c-1.618,0.934-2.878,0.332-2.878-1.252
					c0-1.619,1.26-3.643,2.878-4.577C278.225,131.762,279.52,132.311,279.52,133.929z"/>
			</g>
		</g>
	</g>
	<g>
		<g>
			<polygon style="opacity:0.75;fill:#ADAD99;" points="185.076,359.357 230.5,385.626 261.951,367.467 216.528,341.199 			"/>
			<g>
				<g>
					<g style="enable-background:new    ;">
						<g>
							<polygon style="fill:#FFFDF1;" points="231.593,376.786 189.395,352.263 189.412,357.986 231.609,382.509 							"/>
						</g>
						<path style="fill:#3C7E9E;" d="M190.133,358.399l28.135-16.243l0.529-0.305c0.102-0.059,0.194-0.065,0.26-0.026l42.197,24.523
							c-0.066-0.038-0.158-0.032-0.26,0.026l-0.529,0.305l-28.135,16.243c-0.199,0.115-0.38,0.125-0.51,0.049l-42.198-24.523
							C189.753,358.525,189.934,358.514,190.133,358.399z"/>
						<g>
							<path style="fill:#FFFDF1;" d="M232.309,375.543l-42.197-24.523c-0.395,0.228-0.718,0.786-0.716,1.243l42.198,24.523
								C231.592,376.329,231.914,375.771,232.309,375.543z"/>
						</g>
						<g>
							<path style="fill:#4DA3CC;" d="M230.866,377.205l0.017,5.724c0,0.92,0.653,1.29,1.45,0.828l28.664-16.549
								c0.202-0.116,0.362-0.393,0.362-0.626c0-0.233-0.164-0.325-0.366-0.208l-0.53,0.305l-28.133,16.244
								c-0.397,0.229-0.718,0.044-0.722-0.414c0-0.037-0.017-5.72-0.017-5.72c0-0.458,0.322-1.016,0.719-1.245l27.411-15.827
								l1.252-0.722c0.202-0.116,0.363-0.397,0.363-0.63c0-0.229-0.164-0.322-0.366-0.205l-1.252,0.722l-27.411,15.826
								c-0.777,0.448-1.413,1.526-1.437,2.429C230.866,377.16,230.866,377.181,230.866,377.205z"/>
						</g>
						<g>
							<path style="fill:#FFF4F0;" d="M231.591,376.787l0.017,5.683l28.13-16.241l-0.017-6.514l-27.411,15.827
								C231.913,375.771,231.591,376.329,231.591,376.787z"/>
						</g>
						<path style="fill:#29596D;" d="M190.109,350.184l28.663-16.549c0.102-0.059,0.194-0.065,0.261-0.026l42.198,24.523
							c-0.066-0.038-0.158-0.033-0.261,0.026l-28.663,16.549c-0.797,0.46-1.444,1.58-1.441,2.499l0.016,5.723
							c0.001,0.458,0.163,0.779,0.422,0.93l-42.198-24.523c-0.26-0.151-0.421-0.472-0.422-0.93l-0.016-5.723
							C188.666,351.764,189.312,350.644,190.109,350.184z"/>
					</g>
				</g>
				<g>
					<path style="fill:#FFFFFF;" d="M232.307,374.707c2.361-1.426,4.73-2.84,7.108-4.236l7.148-4.167l7.183-4.107
						c2.399-1.362,4.807-2.707,7.223-4.038c-2.361,1.427-4.73,2.84-7.109,4.237l-7.149,4.167l-7.183,4.107
						C237.132,372.03,234.723,373.375,232.307,374.707z"/>
				</g>
				<g>
					<path style="fill:#FFFFFF;" d="M232.331,382.922c2.361-1.426,4.73-2.84,7.109-4.236l7.149-4.167l7.183-4.107
						c2.398-1.362,4.807-2.707,7.223-4.038c-2.361,1.427-4.73,2.84-7.109,4.237l-7.149,4.167l-7.183,4.107
						C237.155,380.245,234.747,381.59,232.331,382.922z"/>
				</g>
				<g>
					<g>
						<g>
							<g style="enable-background:new    ;">
								<g>
									<polygon style="fill:#FFC73B;" points="229.093,374.499 186.313,347.64 215.048,331.049 259.444,356.849 									"/>
								</g>
								<g>
									<path style="fill:#FFF4F0;" d="M258.504,356.769l-14.067,8.121l-14.504,8.375c-0.25,0.143-0.496,0.255-0.732,0.329
										c-0.239,0.074-0.466,0.112-0.677,0.112c-0.477,0-0.858-0.197-1.121-0.559c-0.263-0.365-0.409-0.891-0.409-1.551
										c-0.003-1.099,0.384-2.322,1.012-3.407c0.625-1.086,1.491-2.034,2.451-2.585l14.233-8.219l13.798-7.967l-0.397,1.516
										C257.582,352.871,257.728,354.922,258.504,356.769z"/>
									<path style="fill:#FFF0C9;" d="M259.447,357.48l-28.734,16.59c-1.061,0.614-2.023,0.658-2.706,0.238
										c-0.063-0.041-0.118-0.079-0.173-0.121c-0.463-0.444-0.683-0.869-0.798-1.403c-0.058-0.348-0.066-0.439-0.074-0.535
										c-0.005-0.104-0.011-0.211-0.011-0.321c-0.005-2.38,1.667-5.274,3.736-6.47l28.737-16.59l0.003,0.628l-14.233,8.219
										l-14.233,8.218c-0.959,0.551-1.826,1.499-2.451,2.585c-0.628,1.085-1.014,2.308-1.012,3.407
										c0,0.661,0.145,1.187,0.409,1.551c0.263,0.362,0.644,0.559,1.121,0.559c0.211,0,0.439-0.038,0.677-0.112
										c0.236-0.074,0.482-0.186,0.732-0.329l14.504-8.374l14.501-8.372L259.447,357.48z"/>
								</g>
								<path style="fill:#FFC73B;" d="M215.027,323.068l-28.735,16.591c-2.07,1.195-3.743,4.091-3.736,6.47
									c0.003,1.182,0.421,2.013,1.093,2.404l44.396,25.8c-0.673-0.391-1.09-1.222-1.093-2.404
									c-0.007-2.378,1.666-5.275,3.736-6.469l28.736-16.591L215.027,323.068z"/>
							</g>
						</g>
					</g>
					<g>
						<path style="fill:#FFFFFF;" d="M226.952,371.928c0.012-1.714,0.715-3.375,1.741-4.738c0.52-0.682,1.15-1.288,1.887-1.739
							l2.211-1.292l8.847-5.15c5.93-3.379,11.828-6.812,17.786-10.141c-5.863,3.495-11.785,6.886-17.676,10.332l-8.884,5.086
							l-2.218,1.274c-0.724,0.435-1.346,1.028-1.868,1.695C227.736,368.582,227,370.216,226.952,371.928z"/>
					</g>
					<path style="fill:#FFFFFF;" d="M227.5,371.927c0.002,0.758,0.23,1.675,0.989,1.982c0.363,0.145,0.772,0.107,1.141-0.004
						c0.357-0.159,0.719-0.297,1.054-0.513l4.095-2.387l8.191-4.772c5.492-3.126,10.954-6.307,16.474-9.384
						c-5.426,3.242-10.91,6.381-16.364,9.574l-8.228,4.708l-4.114,2.353c-0.335,0.206-0.72,0.346-1.085,0.498
						c-0.382,0.106-0.808,0.136-1.184-0.024c-0.378-0.155-0.645-0.497-0.785-0.866C227.54,372.721,227.497,372.321,227.5,371.927z"
						/>
				</g>
				<g>
					<g>
						<path style="fill:#FFF4F0;" d="M218.271,339.781c0.636,0.367,0.651,0.939-0.06,1.35c-0.695,0.401-1.686,0.393-2.322,0.026
							c-0.652-0.377-0.667-0.948,0.029-1.35C216.628,339.396,217.619,339.404,218.271,339.781z M228.676,346.061l-1.895,1.094
							l-7.83-4.52l1.895-1.094L228.676,346.061z"/>
					</g>
					<g>
						<path style="fill:#FFF4F0;" d="M231.236,348.643c-5.19,2.997-13.636,2.997-18.827-0.001c-5.191-2.997-5.191-7.873,0-10.869
							c5.191-2.997,13.637-2.997,18.827-0.001C236.428,340.769,236.428,345.645,231.236,348.643z M213.643,338.485
							c-4.51,2.604-4.51,6.841,0,9.444c4.511,2.604,11.85,2.604,16.36,0.001c4.511-2.604,4.511-6.841,0-9.446
							C225.493,335.881,218.154,335.881,213.643,338.485z"/>
					</g>
				</g>
			</g>
		</g>
	</g>
	<g>
		<g>
			<path style="opacity:0.1;fill:#3F72DF;" d="M290.372,344.824c-7.355,4.246-7.355,11.132,0,15.379
				c7.355,4.246,19.28,4.246,26.635,0c7.355-4.247,7.355-11.132,0-15.379C309.652,340.578,297.727,340.578,290.372,344.824z"/>
			<path style="fill:#291E40;" d="M282.861,354.21c-0.055-0.139-0.074-0.241-0.06-0.311c0.003-0.928,1.138-1.66,3.5-1.469
				c1.05,0.087,1.976,0.128,2.68,0.148c1.5-0.237,2.959-0.559,3.783-0.99c0.379-0.197,1.157-1.102,1.709-1.114
				c2.406-0.072,6.619,1.572,6.619,1.572s1.109,4.465,0.824,5.217c-0.248,0.654-0.25,1.129-1.711,1.742
				c-0.209,0.096-0.437,0.168-0.665,0.204c-0.569,0.09-1.82,0.149-3.348,0.164l-0.578-0.928c0,0-0.941,0.627-2.194,0.907
				c-3.124-0.077-7.046-1.36-7.704-1.906C284.644,356.556,283.254,355.181,282.861,354.21z"/>
			<path style="fill:#291E40;" d="M319.809,345.786l-4.48-2.682c0,0-0.092-0.076-0.244-0.199c-0.823-0.689-3.515-2.905-4.156-3.251
				c-1.789-1.438-3.985-1.364-4.615-1.229c-0.467,0.188-0.678,0.862-0.681,1.752c-0.004,0.868,2.857,4.358,3.98,5.136
				c0.423,0.28,0.745,0.456,1.026,0.592c0.574,0.28,0.881,0.917,0.754,1.543c0.269,0.572,0.43,0.81,0.585,0.978
				c0.819,0.888,1.518,1.415,2.24,1.762c0.754,0.359,1.536,0.518,2.48,0.682c1.468,0.257,2.415-0.786,2.739-1.22
				c0.08-0.113,0.134-0.238,0.141-0.378L319.809,345.786z"/>
			<g>
				<g>
					<polygon style="fill:#886CC3;" points="288.943,270.763 288.79,271.376 277.932,265.115 276.75,264.437 275.677,263.802 
						275.677,263.189 276.903,263.889 277.473,264.218 					"/>
					<polygon style="fill:#291E40;" points="295.377,266.96 288.789,270.773 275.667,263.197 282.315,259.39 					"/>
					<path style="fill:#FEC9C9;" d="M290.761,262.319c0,0-3.737-1.873-4.584-0.677c-0.848,1.196,0,2.858,0,2.858
						s1.09,0.432,1.292-0.266c0.202-0.697,0.202-0.697,0.202-0.697l3.04,2.99l4.585-5.364L290.761,262.319z"/>
					<g>
						<path style="fill:#FEC9C9;" d="M290.761,262.319c0,0-3.737-1.873-4.584-0.677c-0.848,1.196,0,2.858,0,2.858
							s1.09,0.432,1.292-0.266c0.202-0.697,0.202-0.697,0.202-0.697l3.04,2.99l4.585-5.364L290.761,262.319z"/>
					</g>
					<path style="fill:#FEC9C9;" d="M283.448,267.738c-0.046,1.289-0.86,2.779-0.921,3.577c-0.077,0.798-0.583,2.441-0.583,2.441
						l-0.368,0.076l-1.796,0.399l-0.368-0.291c0,0-1.182-0.844-1.688-1.934c-0.507-1.105-1.689-3.822-1.643-4.513
						c0.023-0.464,0.362-1.954,0.675-3.068l3.452,1.994c0.079,0.107,0.815-0.522,0.677-1.243c-0.153-0.737-0.783-2.164-0.66-2.533
						c0.015-0.061,0.046-0.123,0.107-0.169c0.215-0.261,0.783-0.307,1.382,0.798C282.45,264.592,283.478,266.465,283.448,267.738z"
						/>
					<path style="fill:#4E7D9B;" d="M325.045,273.94c-0.445,0.476-1.78,0.829-3.101,1.013c-1.336,0.169-2.671,0.153-3.07-0.138
						c-0.491-0.368-0.384-10.837-0.215-18.758c0.092-4.881,0.215-8.795,0.215-8.795s4.712,2.271,5.526,10.145
						C325.214,265.283,325.951,272.988,325.045,273.94z"/>
					<path style="fill:#3B2B5A;" d="M321.225,293.938c0,0-1.02,14.211-0.944,19.374c0.069,5.172,0.376,8.287,0.529,9.423
						c0.154,1.143-0.491,22.044-0.491,22.044c0,0.683-0.453,1.366-1.358,1.896c-1.381,0.79-3.414,0.982-5.102,0.568
						c-0.53-0.131-1.029-0.314-1.466-0.568c-0.906-0.53-1.358-1.213-1.358-1.896c-0.031,0,0.199-20.372-0.031-23.64
						c-0.161-2.302-1.558-10.335-2.363-14.854l-6.729,17.594v30.116c0,0.691-0.453,1.374-1.359,1.895
						c-1.304,0.76-3.2,0.967-4.834,0.637c-0.637-0.13-1.228-0.337-1.734-0.637c-0.905-0.522-1.358-1.204-1.358-1.895l-0.989-30.462
						c0,0,0.207-22.121,4.066-35.042l4.834-0.706l19.006-2.793C319.545,284.992,321.724,290.8,321.225,293.938z"/>
					<path style="fill:#35586B;" d="M321.407,289.673c0,0-0.153,0.123-0.445,0.337c-0.276,0.2-0.706,0.476-1.289,0.798
						c-2.133,1.197-6.308,2.916-12.679,2.978c-2.01,0.016-3.745-0.062-5.203-0.215c-0.829-0.092-1.566-0.2-2.241-0.338
						c-2.456-0.476-3.869-1.213-4.59-1.98c-0.414-0.43-0.599-0.875-0.63-1.289c-0.092-1.612,2.518-10.929,1.812-15.043
						c-0.276-1.596-1.321-3.976-2.195-6.647c-0.246-0.783-0.492-1.581-0.691-2.395c-0.645-2.594-0.936-5.327-0.138-7.859
						c0.307-0.983,0.821-2,1.543-2.89c0.092-0.077,0.299-0.257,0.468-0.411c0.338-0.276,0.845-0.66,1.535-1.12
						c0.337-0.23,0.721-0.476,1.151-0.737c0.645-0.399,1.381-0.798,2.226-1.228c0.276-0.138,0.568-0.276,0.875-0.414
						c0.184-0.092,0.353-0.169,0.553-0.261c0.322-0.138,0.644-0.276,0.997-0.415c0.123-0.061,0.261-0.107,0.399-0.169
						c0.154-0.061,0.292-0.107,0.445-0.169c0.507-0.2,1.029-0.384,1.582-0.568c0.077-0.031,0.153-0.061,0.23-0.077
						c1.689-0.568,3.561-1.074,5.649-1.458c0.706-0.138,1.458-0.261,2.21-0.369c1.827-0.245,3.791-0.43,5.879-0.475
						c0.031,0.046,0.184,0.26,0.384,0.598c0.752,1.35,2.441,4.881,2.057,9.517c-0.199,2.257-0.491,4.375-0.737,6.493
						c-0.43,3.499-0.798,6.984-0.614,11.052c0.184,3.945,0.676,8.504,1.029,11.482C321.223,288.368,321.407,289.673,321.407,289.673
						z"/>
					<path style="fill:#FEC9C9;" d="M313.015,246.397c-0.023,0.613-0.03,1.335-0.038,2.002c-0.008,0.837-0.023,0.652-0.023,0.468
						c-0.016,0.299-0.138,0.974-0.998,1.45c-1.719,0.952-3.928,1.159-5.747,1.12c-0.383-0.008-0.744-0.054-1.082-0.131
						c-1.289-0.284-2.171-0.913-2.264-0.928c0.031-0.177,0.108-1.274,0.207-3.445c0.016-0.269-0.153-0.522-0.406-0.599
						c-0.79-0.245-2.317-0.829-3.245-2.755c-0.66-1.366-1.044-8.317-1.051-8.402c-0.008-0.107,0.122-0.084,0.376,0.038
						c0.33,0.161,0.852,0.499,1.511,0.959c0.107,0.077,0.223,0.161,0.346,0.246C304.698,239.345,313.015,246.166,313.015,246.397z"
						/>
					<path style="fill:#3B2B5A;" d="M316.407,237.657c-0.261,1.066-1.32,3.46-1.52,4.542c-0.169,0.944-1.873,4.198-1.873,4.198
						c-1.565,0.959-4.189,1.288-5.516,1.212c-0.307-0.023-0.544-0.061-0.683-0.115c-0.077-0.031-0.222-0.092-0.399-0.176
						c-1.419-0.653-2.463-1.918-2.831-3.438l-0.085-0.353c-0.131-0.529-0.154-1.074-0.115-1.611
						c0.023-0.284,0.031-0.598,0.015-0.951c-0.092-1.857-0.944-2.126-1.588-2.249c-0.66-0.146-0.767,1.88-0.767,1.88l-0.89-0.284
						l-0.131-2.885c0-0.299-0.107-0.583-0.299-0.814c-0.698-0.798-3.154-1.312-3.146-4.397c0-1.404,1.496-6.307,8.954-6.384
						c0.99-0.008,2.087,0.061,3.3,0.245C316.913,227.283,317.051,234.964,316.407,237.657z"/>
					<path style="fill:#4E7D9B;" d="M298.782,263.779c0,6.232-3.054,9.486-3.054,9.486s-4.36,18.312-8.258,18.112
						c-0.369-0.046-0.614-0.138-0.875-0.292c-3.669-2.18-7.215-15.61-7.138-16.439c0-0.169-0.046-0.246-0.046-0.353
						c0-0.829,0.537-1.826,1.289-2.456c0.153-0.153,0.322-0.261,0.491-0.368c0.322-0.184,0.614-0.261,0.875-0.261
						c0.353,0,0.63,0.154,0.783,0.445c0,0,3.439,7.214,3.945,8.289c0.015-1.811,2.702-21.275,7.874-24.805
						c0,0,0.753,0.491,1.658,1.519C297.508,258.053,298.782,260.325,298.782,263.779z"/>
				</g>
			</g>
		</g>
		<g>
			<path style="fill:#FFFFFF;" d="M275.462,201.209v27.351c0,0.298,0.049,0.566,0.144,0.793l5.713,13.652
				c0.329,0.787-0.792,2.257-1.625,2.132l-15.497-2.338c-0.47-0.071-1.035,0.071-1.616,0.406l-25.079,14.37
				c-1.515,0.875-2.744,0.356-2.744-1.16v-31.816c0-1.515,1.229-3.453,2.744-4.328l35.217-20.222
				C274.234,199.174,275.462,199.693,275.462,201.209z"/>
			<g>
				<path style="fill:#C43B71;" d="M262.441,217.603c0,5.794-6.513,8.978-6.513,13.331v1.223l-4.282,2.472v-1.403
					c0-6.152,5.974-9.099,5.974-12.48c0-1.583-1.151-1.855-3.023-0.774c-1.618,0.934-3.202,2.605-4.569,5.012l-2.987-0.614
					c2.016-3.538,4.605-6.365,7.953-8.297C259.922,213.229,262.441,214.545,262.441,217.603z M256.792,238.063
					c0,1.583-1.295,3.661-2.95,4.617c-1.62,0.935-2.879,0.332-2.879-1.252c0-1.619,1.258-3.642,2.879-4.577
					C255.497,235.896,256.792,236.445,256.792,238.063z"/>
			</g>
		</g>
	</g>
</g>
</svg>
