<svg viewBox="0 0 1024 1024" version="1.1" xmlns="http://www.w3.org/2000/svg" width="1em" height="1em" class="_29QLmVrs" style="fill:#0A8800" alt="" aria-label="" aria-hidden="true"><path d="M829.7 783.4l-54.9-97.2c-25.4-44.9-38.8-96.2-38.8-148.5l0-85.1c0-107.5-67.6-198.4-160-227.7l0-61c0-37.4-28.7-67.9-64-67.9-35.3 0-64 30.5-64 67.9l0 61c-92.4 29.3-160 120.2-160 227.7l0 85.1c0 52.3-13.4 103.7-38.8 148.5l-54.9 97.2c-3 5.3-3 11.8-0.2 17.1 2.8 5.3 8.1 8.6 13.9 8.6l608 0c5.8 0 11.1-3.3 13.9-8.5 2.8-5.3 2.7-11.9-0.2-17.2z m-317.7 144.6c47.1 0 87.6-29.3 106.7-71.3l-213.4 0c19.1 42 59.5 71.3 106.7 71.3z"></path></svg>
