<svg class="WPHi-Fur" alt="" aria-label="" xmlns="http://www.w3.org/2000/svg" version="1.1" viewBox="0 0 1024 1024" width="1em" height="1em" fill="#fff" aria-hidden="true"><path d="M549.7 128.9l284.8 111.9c27.3 10.7 44.8 37.6 43.5 66.9l-6.9 165.7c-5.7 135.5-73.3 260.9-183.4 340l-58.7 42.2c-72 51.7-168.9 51.7-240.9 0.1l-57.5-41.3c-109.9-79-176.5-204.7-180.2-340l-4.6-167c-0.8-28.6 16.3-54.7 42.8-65.6l275.3-112.3c27.5-11.2 58.2-11.4 85.8-0.6z m139.8 268.7c-11.7-12.8-31-13.3-43.3-1l-163.6 165.1-84.5-78.5c-12.7-11.8-32-10.5-43.2 2.9-11.2 13.3-9.9 33.7 2.8 45.4l105.6 98.1c11.9 11.1 29.9 10.7 41.4-1l183.8-185.5c12.2-12.3 12.6-32.7 1-45.5z"></path></svg>
