<svg class="_29U4TxK8" alt="" xmlns="http://www.w3.org/2000/svg" version="1.1" viewBox="0 0 1024 1024" width="1em" height="1em" fill="#ab0000"><path d="M459.5 24c29.3-11.5 61.9-11.8 91.3-0.6l344.9 131c35.8 13.6 59 48.6 57.5 86.9l-9.1 229c-6.4 161.4-88.1 310.4-220.7 402.5l-102.4 71.1c-68.4 47.5-159 47.5-227.4 0l-101.7-70.6c-132.1-91.7-212.6-240.9-216.7-401.6l-5.9-230.9c-1-37.5 21.6-71.5 56.4-85.2z m67.1 63.3c-13.6-5.1-28.5-5.1-42 0.2l-333.8 131.6c-8.2 3.2-13.5 11.2-13.3 20l5.9 230.9c3.6 139 73.2 268 187.4 347.3l101.7 70.6c45 31.2 104.6 31.2 149.6 0l102.4-71.2c115.1-79.9 185.9-209.2 191.4-349.1l9.1-229c0.4-9-5.1-17.2-13.5-20.4z m-114.6 552.6c23.6 0 42.7 19.1 42.7 42.7 0 23.6-19.1 42.7-42.7 42.7-23.6 0-42.7-19.1-42.8-42.7 0-23.6 19.1-42.7 42.8-42.7z m231.5 0c23.6 0 42.7 19.1 42.7 42.7 0 23.6-19.1 42.7-42.7 42.7-23.6 0-42.7-19.1-42.7-42.7 0-23.6 19.1-42.7 42.7-42.7z m-335.4-386c25.6 0 47.6 18.3 52.3 43.5l5.4 29.7 313.2 0c32.5 0 59.2 24.8 62.2 56.5l0.3 6c0 3.5-0.3 6.9-0.9 10.3l-26.6 158.8c-5 30.1-31.1 52.2-61.6 52.1l-249.9 0c-30.4 0-56.4-21.9-61.5-51.9l-33.4-194.4-8.6-46.6-60.1 0c-16.2 0-29.6-12-31.7-27.7l-0.3-4.3c0-17.7 14.3-32 32-32l69.2 0z m369.1 137.2l-300.1 0 26.7 155.7 247.3 0 26.1-155.7z"></path></svg>
