<svg xmlns="http://www.w3.org/2000/svg" version="1.1" viewBox="0 0 1024 1024" width="1em" height="1em" fill="#0A8800" class="_37s4WoRg" alt="All reviews are from verified purchases"><path d="M557.4 67.6l357.5 136.7c28.3 10.8 46.5 38.5 45.2 68.8l-8.6 199.8c-6.8 157.9-86.7 303.6-216.2 394.3l-97.7 68.3c-72.7 50.8-169.4 50.9-242.1 0l-96.1-67.2c-129.2-90.3-208-236.5-212.4-394.2l-5.6-201.2c-0.8-29.6 16.9-56.5 44.4-67.4l345.9-137.3c27.5-10.9 58.1-11.1 85.7-0.6z m75.6 412.9l-224 0c-61.9 0-112 50.1-112 112l0 76.8c0 24.7 20.1 44.8 44.8 44.8l358.4 0c24.7 0 44.8-20.1 44.8-44.8l0-76.8c0-61.9-50.1-112-112-112z m-112-243.7c-48.1 0-87.1 40.1-87.2 89.6 0 49.5 39 89.6 87.2 89.6 48.1 0 87.1-40.1 87.1-89.6 0-49.5-39-89.6-87.1-89.6z"></path></svg>
