<svg class="_3YZgACA6 _1KZuQNOe" alt="" xmlns="http://www.w3.org/2000/svg" version="1.1" viewBox="0 0 1024 1024" width="1em" height="1em" fill="#000000"><path d="M512 113.1c209.7 0 379.7 170 379.7 379.7 0 209.7-170 379.7-379.7 379.7-31.1 0-61.7-3.7-91.4-11l4.6 1 6.2 1.3-83.9 25.4c-36.3 11-74.6-7.9-88.3-42.6l-2.1-5.9c-2.2-7.1-3.2-14.6-3.1-22l0.6-46.7-5.1-4.8c-71-67.9-113.6-161-117-261.3l-0.2-13.1c0-209.7 170-379.7 379.7-379.7z m0 76.8c-167.3 0-302.9 135.6-302.9 302.9 0 91 40.3 175.4 108.8 232.6 8.9 7.4 13.9 18.4 13.8 30l-0.8 58.5 87.9-26.5c5-1.5 10.1-2 15.2-1.4l5.1 0.9c23.7 5.8 48.1 8.8 72.9 8.8 167.3 0 302.9-135.6 302.9-302.9 0-167.3-135.6-302.9-302.9-302.9z m0.5 413.1c12 0 22.4 4.2 30.6 12.5 8.3 8.3 12.5 18.6 12.5 30.6 0 13.2-4.5 24-13.3 31.8-8.5 7.6-18.6 11.4-29.8 11.4-11.5 0-21.7-3.8-30.3-11.2-9-7.8-13.5-18.6-13.5-32 0-12 4.3-22.4 12.8-30.7 8.4-8.2 18.9-12.4 31-12.4z m5.7-305.1c24 0 45.4 4.5 64 13.4 18.8 9 33.4 21.4 43.8 37.1 10.4 15.8 15.6 33 15.6 51.6 0 14.7-3 27.7-9.1 38.9-5.8 10.8-12.8 20.1-20.9 28l-9.6 9.1-18.9 17.3-12 10.7-7 6.7-5.3 5.6c-2.8 3.2-4.9 6.1-6.2 8.6-1.3 2.6-2.4 5.2-3.1 7.7l-1.2 4.6-3.7 16.2c-4.8 16.7-16.8 25.8-34.7 25.7-10.2 0-19.1-3.4-26.1-10.2-7.3-6.9-10.8-16.9-10.9-29.5 0-14.3 2.2-26.7 6.8-37.4 4.5-10.5 10.4-19.8 17.8-27.8 5.6-6 12.7-12.9 21.4-20.8l15.7-13.9 7.2-6.5 5.3-5.1c4-4 7.3-8.4 10.1-13.3 2.4-4.3 3.6-9 3.6-14.2 0-10.4-3.8-19-11.6-26.1-7.9-7.3-18.1-10.9-31-10.9-15.3 0-26.1 3.6-32.7 10.6-7.4 7.8-13.8 19.8-19 35.6l-1.9 5.4c-6.9 17.5-19.2 26.8-36.2 26.8-10.9 0-20.4-4-28-11.7-7.5-7.6-11.3-16.3-11.3-25.6 0-16.5 5.3-33.1 15.6-49.7 10.4-16.5 25.4-30.2 45.1-40.9 19.7-10.7 42.5-16.1 68.4-16z"></path></svg>
